{
    "asset" : {
        "generator" : "Khronos glTF Blender I/O v1.3.48",
        "version" : "2.0"
    },
    "scene" : 0,
    "scenes" : [
        {
            "name" : "Scene",
            "nodes" : [
                0
            ]
        }
    ],
    "nodes" : [
        {
            "mesh" : 0,
            "name" : "kolibri",
            "translation" : [
                -6,
                -1.5,
                0
            ]
        }
    ],
    "materials" : [
        {
            "doubleSided" : true,
            "emissiveFactor" : [
                0,
                0,
                0
            ],
            "name" : "kolobri",
            "pbrMetallicRoughness" : {
                "baseColorTexture" : {
                    "index" : 0,
                    "texCoord" : 0
                },
                "metallicFactor" : 0,
                "roughnessFactor" : 0.5
            }
        }
    ],
    "meshes" : [
        {
            "name" : "Cylinder.004",
            "primitives" : [
                {
                    "attributes" : {
                        "POSITION" : 0,
                        "NORMAL" : 1,
                        "TEXCOORD_0" : 2
                    },
                    "indices" : 3,
                    "material" : 0
                }
            ]
        }
    ],
    "textures" : [
        {
            "source" : 0
        }
    ],
    "images" : [
        {
            "bufferView" : 4,
            "mimeType" : "image/png",
            "name" : "texture"
        }
    ],
    "accessors" : [
        {
            "bufferView" : 0,
            "componentType" : 5126,
            "count" : 368,
            "max" : [
                0.5,
                1,
                0.5
            ],
            "min" : [
                -0.5,
                -0.5000001192092896,
                -5.962440319251527e-09
            ],
            "type" : "VEC3"
        },
        {
            "bufferView" : 1,
            "componentType" : 5126,
            "count" : 368,
            "type" : "VEC3"
        },
        {
            "bufferView" : 2,
            "componentType" : 5126,
            "count" : 368,
            "type" : "VEC2"
        },
        {
            "bufferView" : 3,
            "componentType" : 5123,
            "count" : 552,
            "type" : "SCALAR"
        }
    ],
    "bufferViews" : [
        {
            "buffer" : 0,
            "byteLength" : 4416,
            "byteOffset" : 0
        },
        {
            "buffer" : 0,
            "byteLength" : 4416,
            "byteOffset" : 4416
        },
        {
            "buffer" : 0,
            "byteLength" : 2944,
            "byteOffset" : 8832
        },
        {
            "buffer" : 0,
            "byteLength" : 1104,
            "byteOffset" : 11776
        },
        {
            "buffer" : 0,
            "byteLength" : 815,
            "byteOffset" : 12880
        }
    ],
    "buffers" : [
        {
            "byteLength" : 13696,
            "uri" : "data:application/octet-stream;base64,"
        }
    ]
}
