<svg xmlns="http://www.w3.org/2000/svg" width="16" height="16" fill="currentColor" viewBox="0 0 16 16"><path fill="currentColor" fill-rule="evenodd" d="M8 2.13065C8.68162 2.13065 9.34274 2.32927 10.3306 2.65338C10.8032 2.80844 11.1871 3.15726 11.3883 3.61021L14.8464 11.3937C15.3637 12.558 14.5113 13.8694 13.2372 13.8694H2.76279C1.48867 13.8694 0.636338 12.558 1.15364 11.3937L4.61166 3.61021C4.81289 3.15726 5.1968 2.80844 5.66941 2.65338C6.65726 2.32927 7.31838 2.13065 8 2.13065ZM8 3.30452C7.53672 3.30452 7.05294 3.43489 6.03537 3.76875C5.87973 3.81982 5.75165 3.93551 5.68442 4.08681L2.22641 11.8703C2.05397 12.2584 2.33809 12.6955 2.76279 12.6955H13.2372C13.6619 12.6955 13.946 12.2584 13.7736 11.8703L10.3156 4.08681C10.2484 3.93551 10.1203 3.81982 9.96463 3.76875C8.94707 3.43489 8.46328 3.30452 8 3.30452ZM7.41306 8.36406V8.58695H8.58694V8.36406C8.45489 8.29974 8.35012 8.25131 8.2589 8.21482C8.1114 8.15582 8.04298 8.14675 8 8.14675C7.95702 8.14675 7.8886 8.15582 7.7411 8.21482C7.64988 8.25131 7.54511 8.29974 7.41306 8.36406ZM9.41603 7.46488L9.43636 7.47504C9.6352 7.57447 9.76081 7.7777 9.76081 8.00002V9.17389C9.76081 9.49805 9.49803 9.76083 9.17387 9.76083H6.82613C6.50197 9.76083 6.23919 9.49805 6.23919 9.17389V8.00002C6.23919 7.7777 6.3648 7.57447 6.56364 7.47504L6.58397 7.46488C6.86008 7.32681 7.09881 7.20743 7.30513 7.12491C7.52446 7.03717 7.74951 6.97288 8 6.97288C8.25049 6.97288 8.47554 7.03717 8.69487 7.12491C8.90119 7.20743 9.13992 7.32681 9.41603 7.46488Z" clip-rule="evenodd"/></svg>