<svg width="16" height="16" viewBox="0 0 16 16" fill="current" xmlns="http://www.w3.org/2000/svg">
<path fill-rule="evenodd" clip-rule="evenodd" d="M5.25 10.2597C5.25 11.1391 5.55625 11.9711 6.08485 12.5753C6.61158 13.1772 7.31054 13.5 8.02273 13.5C8.73492 13.5 9.43387 13.1772 9.96061 12.5753C10.4892 11.9711 10.7955 11.1391 10.7955 10.2597V9.63636C10.7955 9.36022 11.0193 9.13636 11.2955 9.13636C11.5716 9.13636 11.7955 9.36022 11.7955 9.63636V10.2597C11.7955 11.3644 11.4121 12.435 10.7132 13.2338C10.0124 14.0346 9.0465 14.5 8.02273 14.5C6.99895 14.5 6.03305 14.0346 5.33227 13.2338C4.63336 12.435 4.25 11.3644 4.25 10.2597V9.63636C4.25 9.36022 4.47386 9.13636 4.75 9.13636C5.02614 9.13636 5.25 9.36022 5.25 9.63636V10.2597Z" fill="current"/>
<path fill-rule="evenodd" clip-rule="evenodd" d="M5.25 5.74026C5.25 4.86093 5.55625 4.02886 6.08485 3.42475C6.61158 2.82277 7.31054 2.5 8.02273 2.5C8.73492 2.5 9.43387 2.82277 9.96061 3.42475C10.4892 4.02886 10.7955 4.86093 10.7955 5.74026V6.36364C10.7955 6.63978 11.0193 6.86364 11.2955 6.86364C11.5716 6.86364 11.7955 6.63978 11.7955 6.36364V5.74026C11.7955 4.63563 11.4121 3.565 10.7132 2.76624C10.0124 1.96536 9.0465 1.5 8.02273 1.5C6.99895 1.5 6.03305 1.96536 5.33227 2.76624C4.63336 3.565 4.25 4.63563 4.25 5.74026V6.36364C4.25 6.63978 4.47386 6.86364 4.75 6.86364C5.02614 6.86364 5.25 6.63978 5.25 6.36364V5.74026Z" fill="current"/>
</svg>
