<?xml version="1.0" encoding="UTF-8" standalone="no"?><!-- Generator: Gravit.io --><svg xmlns="http://www.w3.org/2000/svg" xmlns:xlink="http://www.w3.org/1999/xlink" style="isolation:isolate" viewBox="221 220 18 18" width="18pt" height="18pt"><g><rect x="221" y="220" width="18" height="18" transform="matrix(1,0,0,1,0,0)" fill="none"/><path d=" M 228.5 220 C 228.108 220 227.706 220.138 227.422 220.422 C 227.138 220.705 227 221.107 227 221.5 L 227 222.25 L 222.5 222.25 L 222.5 223.75 L 223.25 223.75 L 223.25 235.75 C 223.25 236.984 224.266 238 225.5 238 L 234.5 238 C 235.734 238 236.75 236.984 236.75 235.75 L 236.75 223.75 L 237.5 223.75 L 237.5 222.25 L 233 222.25 L 233 221.5 C 233 221.108 232.862 220.706 232.578 220.421 C 232.295 220.138 231.892 220 231.5 220 L 228.5 220 Z  M 228.5 221.5 L 231.5 221.5 L 231.5 222.25 L 228.5 222.25 L 228.5 221.5 Z  M 224.75 223.75 L 235.25 223.75 L 235.25 235.75 C 235.25 236.166 234.916 236.5 234.5 236.5 L 225.5 236.5 C 225.084 236.5 224.75 236.166 224.75 235.75 L 224.75 223.75 Z  M 226.25 226 L 226.25 234.25 L 227.75 234.25 L 227.75 226 L 226.25 226 Z  M 229.25 226 L 229.25 234.25 L 230.75 234.25 L 230.75 226 L 229.25 226 Z  M 232.25 226 L 232.25 234.25 L 233.75 234.25 L 233.75 226 L 232.25 226 Z " fill="rgb(255,255,255)"/></g></svg>