<?xml version="1.0" encoding="UTF-8" standalone="no"?><!-- Generator: Gravit.io --><svg xmlns="http://www.w3.org/2000/svg" xmlns:xlink="http://www.w3.org/1999/xlink" style="isolation:isolate" viewBox="0 0 18 18" width="18pt" height="18pt"><g><path d=" M 16.364 0.818 L 1.636 0.818 C 0.736 0.818 0 1.555 0 2.455 L 0 12.273 C 0 13.173 0.736 13.909 1.636 13.909 L 7.364 13.909 L 7.364 15.545 L 5.727 15.545 L 5.727 17.182 L 12.273 17.182 L 12.273 15.545 L 10.636 15.545 L 10.636 13.909 L 16.364 13.909 C 17.264 13.909 18 13.173 18 12.273 L 18 2.455 C 18 1.555 17.264 0.818 16.364 0.818 Z  M 16.364 12.273 L 1.636 12.273 L 1.636 2.455 L 16.364 2.455 L 16.364 12.273 Z " fill="rgb(255,255,255)"/><rect x="0" y="0" width="18" height="18" transform="matrix(1,0,0,1,0,0)" fill="none"/></g></svg>