<svg xmlns="http://www.w3.org/2000/svg" width="16" height="16" fill="current" viewBox="0 0 16 16"><path fill="current" fill-rule="evenodd" d="M3.93707 1.53846C3.93707 1.24108 4.17815 1 4.47553 1H11.5245C11.8219 1 12.0629 1.24108 12.0629 1.53846V2.71329C12.0629 2.8561 12.0062 2.99306 11.9052 3.09404L10.8881 4.11115V5.65035C10.8881 5.75666 10.8567 5.86058 10.7977 5.94903L9.83612 7.39138C10.923 8.88064 11.475 10.5846 11.7577 11.9275C11.9099 12.6506 11.9861 13.2787 12.0243 13.7275C12.0434 13.9521 12.0531 14.1325 12.058 14.2582C12.0604 14.3211 12.0616 14.3703 12.0623 14.4046L12.0629 14.4447L12.0629 14.4561L12.0629 14.4596L12.0629 14.4607C12.0629 14.4609 12.0629 14.4615 11.5245 14.4615L12.0629 14.4607C12.0629 14.7581 11.8219 15 11.5245 15H4.47553C4.17815 15 3.93707 14.7589 3.93707 14.4615H4.47553C3.93707 14.4615 3.93707 14.4617 3.93707 14.4615L3.93708 14.4596L3.93709 14.4561L3.93717 14.4447L3.93774 14.4046C3.93838 14.3703 3.93963 14.3211 3.94207 14.2582C3.94695 14.1325 3.95661 13.9522 3.97573 13.7275C4.01392 13.2787 4.0901 12.6506 4.24233 11.9275C4.52505 10.5846 5.07699 8.88064 6.1639 7.39138L5.20233 5.94903C5.14337 5.86058 5.1119 5.75666 5.1119 5.65035V4.11115L4.09478 3.09404C3.9938 2.99306 3.93707 2.8561 3.93707 2.71329V1.53846ZM5.04035 13.9231H10.9597C10.9571 13.8897 10.9543 13.8549 10.9513 13.8188C10.916 13.4049 10.8453 12.8214 10.7039 12.1494C10.4193 10.7979 9.85639 9.12649 8.75437 7.74896C8.60788 7.56586 8.59674 7.30901 8.72681 7.1139L9.8112 5.48732V3.88811C9.8112 3.7453 9.86793 3.60834 9.96891 3.50736L10.986 2.49025V2.07692H5.014V2.49025L6.03111 3.50736C6.13209 3.60834 6.18882 3.7453 6.18882 3.88811V5.48732L7.27321 7.1139C7.40328 7.30901 7.39214 7.56586 7.24565 7.74896C6.14363 9.12649 5.58068 10.7979 5.29615 12.1494C5.15467 12.8214 5.084 13.4049 5.04877 13.8188C5.0457 13.8549 5.0429 13.8897 5.04035 13.9231Z" clip-rule="evenodd"/></svg>