<svg width="16" height="16" viewBox="0 0 16 16" fill="current" xmlns="http://www.w3.org/2000/svg">
<path d="M4.79999 11.1948C3.64839 10.3771 2.7371 9.31353 2.22216 8.64193C2.07816 8.45653 2 8.22847 2 7.99372C2 7.75898 2.07816 7.53091 2.22216 7.34552C3.15405 6.12901 5.38983 3.62421 8.00012 3.62421C9.17107 3.62421 10.2659 4.12791 11.2021 4.79391" stroke="white" stroke-linecap="round" stroke-linejoin="round"/>
<path d="M9.32961 6.67454C9.15627 6.49832 8.94976 6.35816 8.72198 6.26214C8.49421 6.16613 8.24968 6.11616 8.00249 6.11513C7.75531 6.11409 7.51037 6.16201 7.28179 6.25611C7.05322 6.35021 6.84554 6.48864 6.67073 6.6634C6.49593 6.83817 6.35745 7.04582 6.2633 7.27437C6.16914 7.50292 6.12117 7.74785 6.12215 7.99503C6.12312 8.24222 6.17303 8.48676 6.26899 8.71456C6.36495 8.94236 6.50506 9.1489 6.68125 9.32228" stroke="white" stroke-linecap="round" stroke-linejoin="round"/>
<path d="M3.00671 12.9868L12.9935 3" stroke="white" stroke-linecap="round" stroke-linejoin="round"/>
<path d="M6.75171 12.1778C7.15692 12.2984 7.57727 12.3606 8.00005 12.3626C10.6103 12.3626 12.8461 9.85777 13.778 8.64126C13.922 8.4557 14.0001 8.22749 13.9999 7.99263C13.9998 7.75778 13.9215 7.52965 13.7774 7.34423C13.4499 6.91698 13.0985 6.50853 12.725 6.12085" stroke="white" stroke-linecap="round" stroke-linejoin="round"/>
</svg>
