<svg width="16" height="16" viewBox="0 0 16 16" fill="none" xmlns="http://www.w3.org/2000/svg">
<path d="M13.7781 7.72135C14.074 8.10834 14.074 8.63077 13.7781 9.01714C12.8462 10.2337 10.6104 12.7385 8.0001 12.7385C5.38979 12.7385 3.15398 10.2337 2.22208 9.01714C2.07814 8.83184 2 8.60388 2 8.36924C2 8.1346 2.07814 7.90664 2.22208 7.72135C3.15398 6.50482 5.38979 4 8.0001 4C10.6104 4 12.8462 6.50482 13.7781 7.72135V7.72135Z" stroke="white" stroke-linecap="round" stroke-linejoin="round"/>
<path d="M8.0001 10.2418C9.03427 10.2418 9.87263 9.40341 9.87263 8.36924C9.87263 7.33507 9.03427 6.4967 8.0001 6.4967C6.96592 6.4967 6.12756 7.33507 6.12756 8.36924C6.12756 9.40341 6.96592 10.2418 8.0001 10.2418Z" stroke="white" stroke-linecap="round" stroke-linejoin="round"/>
</svg>
