<?xml version="1.0" encoding="UTF-8" standalone="no"?><!-- Generator: Gravit.io --><svg xmlns="http://www.w3.org/2000/svg" xmlns:xlink="http://www.w3.org/1999/xlink" style="isolation:isolate" viewBox="183 219.268 18 18" width="18pt" height="18pt"><g><path d=" M 192 222.561 C 187.108 222.561 183.347 227.539 183.183 227.784 C 182.939 228.109 182.939 228.428 183.183 228.753 C 183.347 228.997 187.108 233.976 192 233.976 C 196.892 233.976 200.653 228.998 200.817 228.753 C 201.061 228.427 201.061 228.109 200.817 227.784 C 200.653 227.539 196.892 222.561 192 222.561 Z  M 192 224.192 C 194.283 224.192 196.077 225.985 196.077 228.268 C 196.077 230.551 194.283 232.345 192 232.345 C 189.717 232.345 187.923 230.551 187.923 228.268 C 187.923 225.985 189.717 224.192 192 224.192 Z  M 192 226.23 C 190.875 226.231 189.962 227.143 189.962 228.268 C 189.962 229.393 190.876 230.307 192 230.307 C 193.124 230.307 194.038 229.393 194.038 228.268 C 194.038 227.144 193.124 226.23 192 226.23 Z " fill="rgb(255,255,255)"/><rect x="183" y="219.268" width="18" height="18" transform="matrix(1,0,0,1,0,0)" fill="none"/></g></svg>