<svg width="16" height="16" viewBox="0 0 16 16" fill="current" xmlns="http://www.w3.org/2000/svg">
<path fill-rule="evenodd" clip-rule="evenodd" d="M8.39591 2.28383C8.17725 2.06517 7.82273 2.06517 7.60407 2.28383L5.05898 4.82892C4.95398 4.93393 4.89498 5.07634 4.89498 5.22484V13.0128L6.47811 14.0682L5.85694 15L4.02448 13.7784C3.86871 13.6745 3.77515 13.4997 3.77515 13.3125V5.22484C3.77515 4.77934 3.95212 4.35209 4.26714 4.03708L6.81222 1.49199C7.46821 0.836003 8.53177 0.836004 9.18776 1.49199L11.7328 4.03708C12.0479 4.35209 12.2248 4.77934 12.2248 5.22484V13.3125C12.2248 13.4997 12.1313 13.6745 11.9755 13.7784L10.143 15L9.52186 14.0682L11.105 13.0128V5.22484C11.105 5.07634 11.046 4.93393 10.941 4.82892L8.39591 2.28383Z" fill="current"/>
</svg>
