<svg width="16" height="16" viewBox="0 0 16 16" fill="none" xmlns="http://www.w3.org/2000/svg">
<path fill-rule="evenodd" clip-rule="evenodd" d="M3.64337 2.61538C3.64337 1.72323 4.3666 1 5.25876 1H10.7413C11.6334 1 12.3567 1.72323 12.3567 2.61538V13.3846C12.3567 14.2768 11.6334 15 10.7413 15H5.25876C4.3666 15 3.64337 14.2768 3.64337 13.3846V2.61538ZM5.25876 2.07692C4.96137 2.07692 4.72029 2.318 4.72029 2.61538V13.3846C4.72029 13.682 4.96137 13.9231 5.25876 13.9231H10.7413C11.0387 13.9231 11.2797 13.682 11.2797 13.3846V2.61538C11.2797 2.318 11.0387 2.07692 10.7413 2.07692H5.25876Z" fill="white"/>
</svg>
