<svg width="16" height="16" viewBox="0 0 16 16" fill="none" xmlns="http://www.w3.org/2000/svg">
<path fill-rule="evenodd" clip-rule="evenodd" d="M3.75507 2.61538C3.75507 1.72323 4.4783 1 5.37046 1H10.853C11.7451 1 12.4684 1.72323 12.4684 2.61538V7.87984L14.7314 12.6979C15.2346 13.7692 14.4528 15 13.2692 15H2.73106C1.52169 15 0.74119 13.7199 1.29503 12.6448L3.75507 7.86946V2.61538ZM3.75507 10.221L2.25238 13.138C2.06777 13.4964 2.32794 13.9231 2.73106 13.9231H3.75507V10.221ZM4.83199 13.9231H11.3914V2.61538C11.3914 2.318 11.1504 2.07692 10.853 2.07692H5.37046C5.07307 2.07692 4.83199 2.318 4.83199 2.61538V13.9231ZM12.4684 13.9231H13.2692C13.6638 13.9231 13.9243 13.5128 13.7566 13.1557L12.4684 10.413V13.9231Z" fill="white"/>
</svg>
