<?xml version="1.0" encoding="UTF-8" standalone="no"?><!-- Generator: Gravit.io --><svg xmlns="http://www.w3.org/2000/svg" xmlns:xlink="http://www.w3.org/1999/xlink" style="isolation:isolate" viewBox="196.483 33 15.033 18" width="15.033pt" height="18pt"><path d=" M 210.445 36.429 C 210.161 36.428 209.888 36.541 209.687 36.742 C 209.486 36.943 209.373 37.216 209.374 37.5 L 209.374 40.714 C 209.374 40.95 209.181 41.143 208.945 41.143 C 208.709 41.143 208.517 40.95 208.517 40.714 L 208.517 34.929 C 208.517 34.336 208.038 33.857 207.445 33.857 C 207.161 33.857 206.888 33.97 206.687 34.171 C 206.486 34.372 206.373 34.644 206.374 34.929 L 206.374 40.714 C 206.374 40.95 206.181 41.143 205.945 41.143 C 205.709 41.143 205.517 40.95 205.517 40.714 L 205.517 34.071 C 205.517 33.479 205.038 33 204.445 33 C 204.161 33 203.888 33.112 203.687 33.313 C 203.486 33.514 203.373 33.787 203.374 34.071 L 203.374 40.714 C 203.374 40.95 203.181 41.143 202.945 41.143 C 202.709 41.143 202.517 40.95 202.517 40.714 L 202.517 35.357 C 202.517 34.764 202.038 34.286 201.445 34.286 C 201.161 34.285 200.888 34.398 200.687 34.599 C 200.486 34.8 200.373 35.073 200.374 35.357 L 200.374 45.054 L 199.044 43.724 C 198.763 43.443 198.381 43.285 197.984 43.285 C 197.586 43.285 197.204 43.443 196.923 43.724 C 196.642 44.006 196.483 44.388 196.483 44.786 C 196.483 45.184 196.642 45.566 196.923 45.847 L 201.204 50.128 L 201.204 50.126 C 201.75 50.686 202.498 51.001 203.279 51 L 208.088 51 C 209.981 51 211.517 49.465 211.517 47.571 L 211.517 37.5 C 211.517 36.907 211.038 36.429 210.445 36.429 Z " fill="rgb(255,255,255)"/></svg>