<?xml version="1.0" encoding="UTF-8" standalone="no"?><!-- Generator: Gravit.io --><svg xmlns="http://www.w3.org/2000/svg" xmlns:xlink="http://www.w3.org/1999/xlink" style="isolation:isolate" viewBox="230 33 18 18" width="18pt" height="18pt"><path d=" M 232.077 33 C 230.936 33 230 33.936 230 35.077 L 230 48.923 C 230 50.064 230.936 51 232.077 51 L 245.923 51 C 247.064 51 248 50.064 248 48.923 L 248 35.077 C 248 33.936 247.064 33 245.923 33 L 232.077 33 Z  M 232.077 34.385 L 235.538 34.385 L 235.538 38.538 L 231.385 38.538 L 231.385 35.077 C 231.385 34.688 231.688 34.385 232.077 34.385 Z  M 236.923 34.385 L 241.077 34.385 L 241.077 38.538 L 236.923 38.538 L 236.923 34.385 Z  M 242.462 34.385 L 245.923 34.385 C 246.312 34.385 246.615 34.688 246.615 35.077 L 246.615 38.538 L 242.462 38.538 L 242.462 34.385 Z  M 231.385 39.923 L 235.538 39.923 L 235.538 44.077 L 231.385 44.077 L 231.385 39.923 Z  M 236.923 39.923 L 241.077 39.923 L 241.077 44.077 L 236.923 44.077 L 236.923 39.923 Z  M 242.462 39.923 L 246.615 39.923 L 246.615 44.077 L 242.462 44.077 L 242.462 39.923 Z  M 231.385 45.462 L 235.538 45.462 L 235.538 49.615 L 232.077 49.615 C 231.893 49.618 231.715 49.545 231.585 49.415 C 231.455 49.285 231.382 49.107 231.385 48.923 L 231.385 45.462 Z  M 236.923 45.462 L 241.077 45.462 L 241.077 49.615 L 236.923 49.615 L 236.923 45.462 Z  M 242.462 45.462 L 246.615 45.462 L 246.615 48.923 C 246.615 49.312 246.312 49.615 245.923 49.615 L 242.462 49.615 L 242.462 45.462 Z " fill="rgb(255,255,255)"/></svg>