<svg xmlns="http://www.w3.org/2000/svg" width="16" height="16" fill="current" viewBox="0 0 16 16"><path fill="current" d="M1 1.53729V14.4627C1 14.6052 1.05661 14.7419 1.15737 14.8426C1.25813 14.9434 1.39479 15 1.53729 15H14.4627C14.6052 15 14.7419 14.9434 14.8426 14.8426C14.9434 14.7419 15 14.6052 15 14.4627V1.53729C15 1.39479 14.9434 1.25813 14.8426 1.15737C14.7419 1.05661 14.6052 1 14.4627 1H1.53729C1.39479 1 1.25813 1.05661 1.15737 1.15737C1.05661 1.25813 1 1.39479 1 1.53729ZM10.6914 2.07458H13.9252V5.3084H10.6914V2.07458ZM10.6914 6.38299H13.9252V9.61681H10.6914V6.38299ZM10.6914 10.6914H13.9252V13.9252H10.6914V10.6914ZM6.38299 2.07458H9.61681V5.3084H6.38299V2.07458ZM6.38299 6.38299H9.61681V9.61681H6.38299V6.38299ZM6.38299 10.6914H9.61681V13.9252H6.38299V10.6914ZM2.07458 2.07458H5.3084V5.3084H2.07458V2.07458ZM2.07458 6.38299H5.3084V9.61681H2.07458V6.38299ZM2.07458 10.6914H5.3084V13.9252H2.07458V10.6914Z"/></svg>