<svg width="16" height="16" fill="current" xmlns="http://www.w3.org/2000/svg"><path d="M15.2 13.674V7.126a1.198 1.198 0 0 0-.4-2.326 1.2 1.2 0 0 0-1.126.8H10.4V2.326A1.198 1.198 0 0 0 10 0a1.2 1.2 0 0 0-1.126.8H2.326A1.2 1.2 0 0 0 1.2 0C.538 0 0 .538 0 1.2c0 .52.336.96.8 1.126v6.548a1.198 1.198 0 0 0 .4 2.326 1.2 1.2 0 0 0 1.126-.8H5.6v3.274A1.198 1.198 0 0 0 6 16a1.2 1.2 0 0 0 1.126-.8h6.548A1.198 1.198 0 0 0 16 14.8a1.2 1.2 0 0 0-.8-1.126ZM14.8 5.6a.4.4 0 0 1 0 .8.4.4 0 0 1 0-.8ZM10 .8a.4.4 0 0 1 0 .8.4.4 0 0 1 0-.8ZM1.2.8a.4.4 0 0 1 0 .8.4.4 0 0 1 0-.8Zm0 9.6a.4.4 0 0 1 0-.8.4.4 0 0 1 0 .8Zm1.131-.8-.004.002a1.198 1.198 0 0 0-.73-.728l.003-.006V2.331l-.002-.004c.34-.12.608-.388.728-.728l.005.001H8.87l.004-.002c.12.34.388.608.728.728l-.001.005V5.6H7.126A1.2 1.2 0 0 0 6 4.8c-.662 0-1.2.538-1.2 1.2 0 .52.336.96.8 1.126V9.6H2.331ZM10 9.6a.4.4 0 0 1 0 .8.4.4 0 0 1 0-.8Zm-.398-.726c-.341.12-.608.388-.728.728L8.868 9.6H6.4V7.131l-.002-.004c.34-.12.608-.388.728-.728.001-.001.005.002.005.001H9.6v2.469l.002.005ZM6 6.4a.4.4 0 0 1 0-.8.4.4 0 0 1 0 .8Zm2.874 4A1.198 1.198 0 0 0 11.2 10a1.2 1.2 0 0 0-.8-1.126V6.4h3.269l.004-.003c.12.341.389.61.73.73l-.003.004v6.538l.002.004a1.199 1.199 0 0 0-.73.734l-.003-.007H7.13l-.003.006a1.198 1.198 0 0 0-.734-.734l.006-.003V10.4h2.474ZM6 15.2a.4.4 0 0 1 0-.8.4.4 0 0 1 0 .8Zm8.8 0a.4.4 0 0 1 0-.8.4.4 0 0 1 0 .8Z" fill="current"/></svg>