<svg xmlns="http://www.w3.org/2000/svg" width="16" height="16" fill="current" viewBox="0 0 16 16"><path fill="current" d="M14.3 12.9644V7.2356C14.706 7.0907 15 6.7057 15 6.25C15 5.6711 14.5289 5.2 13.95 5.2C13.4943 5.2 13.11 5.494 12.9644 5.9H10.1V3.0356C10.506 2.8907 10.8 2.5057 10.8 2.05C10.8 1.4711 10.3289 1 9.75 1C9.2943 1 8.91 1.294 8.7644 1.7H3.0356C2.89 1.294 2.505 1 2.05 1C1.4711 1 1 1.4711 1 2.05C1 2.5057 1.294 2.89 1.7 3.0356V8.7644C1.294 8.9093 1 9.2943 1 9.75C1 10.3289 1.4711 10.8 2.05 10.8C2.5057 10.8 2.89 10.506 3.0356 10.1H5.9V12.9644C5.494 13.1093 5.2 13.4943 5.2 13.95C5.2 14.5289 5.6711 15 6.25 15C6.7057 15 7.09 14.706 7.2356 14.3H12.9644C13.1093 14.706 13.4943 15 13.95 15C14.5289 15 15 14.5289 15 13.95C15 13.4943 14.706 13.11 14.3 12.9644ZM13.95 5.9C14.039 5.90563 14.1225 5.94496 14.1835 6.00998C14.2446 6.07499 14.2786 6.16082 14.2786 6.25C14.2786 6.33918 14.2446 6.42501 14.1835 6.49002C14.1225 6.55504 14.039 6.59437 13.95 6.6C13.861 6.59437 13.7775 6.55504 13.7165 6.49002C13.6554 6.42501 13.6214 6.33918 13.6214 6.25C13.6214 6.16082 13.6554 6.07499 13.7165 6.00998C13.7775 5.94496 13.861 5.90563 13.95 5.9ZM9.75 1.7C9.839 1.70563 9.92251 1.74496 9.98355 1.80998C10.0446 1.87499 10.0786 1.96082 10.0786 2.05C10.0786 2.13918 10.0446 2.22501 9.98355 2.29002C9.92251 2.35504 9.839 2.39437 9.75 2.4C9.661 2.39437 9.57749 2.35504 9.51645 2.29002C9.45542 2.22501 9.42145 2.13918 9.42145 2.05C9.42145 1.96082 9.45542 1.87499 9.51645 1.80998C9.57749 1.74496 9.661 1.70563 9.75 1.7ZM2.05 1.7C2.139 1.70563 2.22251 1.74496 2.28355 1.80998C2.34458 1.87499 2.37855 1.96082 2.37855 2.05C2.37855 2.13918 2.34458 2.22501 2.28355 2.29002C2.22251 2.35504 2.139 2.39437 2.05 2.4C1.961 2.39437 1.87749 2.35504 1.81645 2.29002C1.75542 2.22501 1.72145 2.13918 1.72145 2.05C1.72145 1.96082 1.75542 1.87499 1.81645 1.80998C1.87749 1.74496 1.961 1.70563 2.05 1.7ZM2.05 10.1C1.961 10.0944 1.87749 10.055 1.81645 9.99002C1.75542 9.925 1.72145 9.83918 1.72145 9.75C1.72145 9.66082 1.75542 9.57499 1.81645 9.50998C1.87749 9.44496 1.961 9.40563 2.05 9.4C2.139 9.40563 2.22251 9.44496 2.28355 9.50998C2.34458 9.57499 2.37855 9.66082 2.37855 9.75C2.37855 9.83918 2.34458 9.925 2.28355 9.99002C2.22251 10.055 2.139 10.0944 2.05 10.1ZM3.0398 9.4L3.0363 9.4014C2.98398 9.25442 2.89952 9.12096 2.78908 9.01076C2.67864 8.90056 2.545 8.8164 2.3979 8.7644L2.4 8.7595V3.0398L2.3979 3.0363C2.6961 2.9313 2.9299 2.6968 3.0356 2.3993L3.0398 2.4H8.7602L8.7637 2.3979C8.8694 2.6961 9.1032 2.9299 9.4007 3.0356L9.4 3.0398V5.9H7.2356C7.09 5.494 6.705 5.2 6.25 5.2C5.6711 5.2 5.2 5.6711 5.2 6.25C5.2 6.7057 5.494 7.09 5.9 7.2356V9.4H3.0398ZM9.75 9.4C9.839 9.40563 9.92251 9.44496 9.98355 9.50998C10.0446 9.57499 10.0786 9.66082 10.0786 9.75C10.0786 9.83918 10.0446 9.925 9.98355 9.99002C9.92251 10.055 9.839 10.0944 9.75 10.1C9.661 10.0944 9.57749 10.055 9.51645 9.99002C9.45542 9.925 9.42145 9.83918 9.42145 9.75C9.42145 9.66082 9.45542 9.57499 9.51645 9.50998C9.57749 9.44496 9.661 9.40563 9.75 9.4ZM9.4014 8.7644C9.1032 8.8694 8.8694 9.1039 8.7644 9.4014L8.7595 9.4H6.6V7.2398L6.5979 7.2363C6.8961 7.1306 7.1299 6.8968 7.2356 6.5993C7.2363 6.5979 7.2398 6.6007 7.2398 6.6H9.4V8.7602L9.4014 8.7644ZM6.25 6.6C6.161 6.59437 6.07749 6.55504 6.01645 6.49002C5.95542 6.42501 5.92145 6.33918 5.92145 6.25C5.92145 6.16082 5.95542 6.07499 6.01645 6.00998C6.07749 5.94496 6.161 5.90563 6.25 5.9C6.339 5.90563 6.42251 5.94496 6.48355 6.00998C6.54458 6.07499 6.57855 6.16082 6.57855 6.25C6.57855 6.33918 6.54458 6.42501 6.48355 6.49002C6.42251 6.55504 6.339 6.59437 6.25 6.6ZM8.7644 10.1C8.9093 10.506 9.2943 10.8 9.75 10.8C10.3289 10.8 10.8 10.3289 10.8 9.75C10.8 9.2943 10.506 8.91 10.1 8.7644V6.6H12.9602L12.9637 6.5972C13.0687 6.8961 13.3039 7.1306 13.6021 7.2363L13.6 7.2398V12.9602L13.6021 12.9637C13.4542 13.0161 13.3199 13.101 13.2091 13.2123C13.0984 13.3235 13.0141 13.4581 12.9623 13.6063L12.9602 13.6H7.2398L7.237 13.6056C7.185 13.4571 7.10023 13.3223 6.98898 13.211C6.87774 13.0998 6.74288 13.015 6.5944 12.963L6.6 12.9602V10.1H8.7644ZM6.25 14.3C6.161 14.2944 6.07749 14.255 6.01645 14.19C5.95542 14.125 5.92145 14.0392 5.92145 13.95C5.92145 13.8608 5.95542 13.775 6.01645 13.71C6.07749 13.645 6.161 13.6056 6.25 13.6C6.339 13.6056 6.42251 13.645 6.48355 13.71C6.54458 13.775 6.57855 13.8608 6.57855 13.95C6.57855 14.0392 6.54458 14.125 6.48355 14.19C6.42251 14.255 6.339 14.2944 6.25 14.3ZM13.95 14.3C13.861 14.2944 13.7775 14.255 13.7165 14.19C13.6554 14.125 13.6214 14.0392 13.6214 13.95C13.6214 13.8608 13.6554 13.775 13.7165 13.71C13.7775 13.645 13.861 13.6056 13.95 13.6C14.039 13.6056 14.1225 13.645 14.1835 13.71C14.2446 13.775 14.2786 13.8608 14.2786 13.95C14.2786 14.0392 14.2446 14.125 14.1835 14.19C14.1225 14.255 14.039 14.2944 13.95 14.3Z"/></svg>