<svg width="16" height="16" viewBox="0 0 16 16" fill="current" xmlns="http://www.w3.org/2000/svg">
<path d="M14.1116 4.51383C14.1129 4.29619 14.0588 4.08179 13.9543 3.89084C13.8499 3.6999 13.6985 3.53867 13.5146 3.42235C13.3306 3.30604 13.1201 3.23846 12.9028 3.22597C12.6855 3.21349 12.4686 3.25651 12.2725 3.35099C12.2596 3.13181 12.1919 2.91936 12.0758 2.73301C11.9597 2.54665 11.7988 2.39233 11.6078 2.2841C11.4167 2.17587 11.2017 2.11719 10.9821 2.11339C10.7626 2.1096 10.5456 2.16082 10.3509 2.26238C10.329 1.94718 10.1977 1.64954 9.97974 1.42079C9.76178 1.19205 9.47082 1.04655 9.15706 1.00941C8.84329 0.972266 8.5264 1.0458 8.26105 1.21734C7.99571 1.38887 7.79856 1.64763 7.70362 1.94899C7.49683 1.82496 7.26025 1.75941 7.01911 1.75931C6.84169 1.75985 6.66612 1.79539 6.50246 1.86392C6.3388 1.93244 6.19027 2.03258 6.06539 2.15861C5.94051 2.28464 5.84173 2.43408 5.77471 2.59836C5.70769 2.76264 5.67375 2.93853 5.67484 3.11595V8.33636C5.14702 7.67659 4.63158 7.02507 4.55323 6.91373C4.43398 6.72437 4.26839 6.56857 4.07212 6.46105C3.87586 6.35354 3.65541 6.29788 3.43163 6.29933C3.24182 6.29359 3.05285 6.32681 2.87638 6.39695C2.69991 6.46709 2.53969 6.57265 2.4056 6.70712C2.27152 6.84159 2.16642 7.00212 2.09679 7.17879C2.02716 7.35546 1.99448 7.54453 2.00076 7.73432C2.03787 8.47656 3.47287 11.0991 4.43778 12.5259C5.89751 14.6866 7.29127 15 7.35312 15H11.6911C11.7732 14.9991 11.8528 14.9716 11.9179 14.9217C12.6584 14.2393 13.1939 13.3639 13.4642 12.3939C13.8766 11.1197 14.0951 9.28889 14.1157 6.8024L14.1116 4.51383ZM12.7591 12.163C12.5275 12.9478 12.1119 13.666 11.5468 14.2578H7.46033C7.26653 14.2 6.1944 13.8042 5.03981 12.0929C3.88522 10.3816 2.76362 8.10131 2.743 7.69721C2.73968 7.61089 2.75447 7.52483 2.78643 7.44458C2.81839 7.36432 2.86681 7.29165 2.92856 7.23125C2.98939 7.16864 3.06262 7.11943 3.14357 7.08676C3.22452 7.0541 3.3114 7.0387 3.39864 7.04156C3.50757 7.03522 3.61613 7.05924 3.71223 7.11092C3.80832 7.16261 3.88819 7.23995 3.94295 7.33434C4.06253 7.51165 4.91611 8.5714 5.41505 9.2023L6.41708 8.52604V3.11595C6.41015 3.03187 6.42073 2.94726 6.44815 2.86747C6.47557 2.78769 6.51924 2.71445 6.57639 2.65239C6.63355 2.59033 6.70295 2.5408 6.78021 2.50692C6.85748 2.47304 6.94093 2.45554 7.0253 2.45554C7.10967 2.45554 7.19312 2.47304 7.27038 2.50692C7.34765 2.5408 7.41705 2.59033 7.47421 2.65239C7.53136 2.71445 7.57503 2.78769 7.60245 2.86747C7.62987 2.94726 7.64045 3.03187 7.63352 3.11595V7.70958H8.37576V2.34897C8.39331 2.19723 8.46602 2.05724 8.58007 1.95562C8.69412 1.85401 8.84154 1.79786 8.99429 1.79786C9.14704 1.79786 9.29446 1.85401 9.40851 1.95562C9.52256 2.05724 9.59527 2.19723 9.61282 2.34897V7.76318H10.3551V3.45408C10.3482 3.37278 10.3584 3.29095 10.3848 3.21376C10.4112 3.13657 10.4534 3.06571 10.5086 3.00566C10.5639 2.9456 10.631 2.89766 10.7057 2.86487C10.7804 2.83208 10.8611 2.81515 10.9427 2.81515C11.0243 2.81515 11.105 2.83208 11.1797 2.86487C11.2544 2.89766 11.3215 2.9456 11.3767 3.00566C11.4319 3.06571 11.4741 3.13657 11.5005 3.21376C11.527 3.29095 11.5371 3.37278 11.5303 3.45408V8.17141H12.2725V4.50146C12.2844 4.36475 12.3471 4.23746 12.4483 4.14472C12.5494 4.05199 12.6816 4.00054 12.8189 4.00054C12.9561 4.00054 13.0883 4.05199 13.1895 4.14472C13.2906 4.23746 13.3534 4.36475 13.3652 4.50146V6.79003C13.3529 9.22704 13.1549 10.9631 12.7591 12.163Z" fill="current"/>
</svg>
