<svg width="16" height="16" viewBox="0 0 16 16" fill="current" xmlns="http://www.w3.org/2000/svg">
<path fill-rule="evenodd" clip-rule="evenodd" d="M1.22362 1.74779C1.36403 1.64659 1.54454 1.61905 1.70874 1.67378L3.6472 2.31994C3.86708 2.39323 4.01538 2.599 4.01538 2.83077V3.26399L13.4025 13.2769H14.4615C14.7589 13.2769 15 13.518 15 13.8154C15 14.1128 14.7589 14.3538 14.4615 14.3538H10.5846C10.2872 14.3538 10.0462 14.1128 10.0462 13.8154C10.0462 13.518 10.2872 13.2769 10.5846 13.2769H10.6421L3.76474 5.87051C3.72852 5.89341 3.68916 5.91223 3.6472 5.92621L1.70874 6.57237C1.54454 6.6271 1.36403 6.59957 1.22362 6.49836C1.0832 6.39716 1 6.23462 1 6.06154V2.18461C1 2.01153 1.0832 1.849 1.22362 1.74779ZM2.93846 5.02728V3.21887L2.07692 2.93169V5.31446L2.93846 5.02728Z" fill="current"/>
</svg>
