<svg width="16" height="16" viewBox="0 0 16 16" fill="none" xmlns="http://www.w3.org/2000/svg">
<path fill-rule="evenodd" clip-rule="evenodd" d="M5.74026 5.25C4.86093 5.25 4.02886 5.55625 3.42475 6.08485C2.82277 6.61158 2.5 7.31054 2.5 8.02273C2.5 8.73492 2.82277 9.43387 3.42475 9.96061C4.02886 10.4892 4.86093 10.7955 5.74026 10.7955H6.36364C6.63978 10.7955 6.86364 11.0193 6.86364 11.2955C6.86364 11.5716 6.63978 11.7955 6.36364 11.7955H5.74026C4.63563 11.7955 3.565 11.4121 2.76624 10.7132C1.96536 10.0124 1.5 9.0465 1.5 8.02273C1.5 6.99895 1.96536 6.03305 2.76624 5.33227C3.565 4.63336 4.63563 4.25 5.74026 4.25H6.36364C6.63978 4.25 6.86364 4.47386 6.86364 4.75C6.86364 5.02614 6.63978 5.25 6.36364 5.25H5.74026Z" fill="white"/>
<path fill-rule="evenodd" clip-rule="evenodd" d="M10.2597 5.25C11.1391 5.25 11.9711 5.55625 12.5753 6.08485C13.1772 6.61158 13.5 7.31054 13.5 8.02273C13.5 8.73492 13.1772 9.43387 12.5753 9.96061C11.9711 10.4892 11.1391 10.7955 10.2597 10.7955H9.63636C9.36022 10.7955 9.13636 11.0193 9.13636 11.2955C9.13636 11.5716 9.36022 11.7955 9.63636 11.7955H10.2597C11.3644 11.7955 12.435 11.4121 13.2338 10.7132C14.0346 10.0124 14.5 9.0465 14.5 8.02273C14.5 6.99895 14.0346 6.03305 13.2338 5.33227C12.435 4.63336 11.3644 4.25 10.2597 4.25H9.63636C9.36022 4.25 9.13636 4.47386 9.13636 4.75C9.13636 5.02614 9.36022 5.25 9.63636 5.25H10.2597Z" fill="white"/>
<path fill-rule="evenodd" clip-rule="evenodd" d="M4.77271 8.02274C4.77271 7.74659 4.99656 7.52274 5.27271 7.52274H10.7273C11.0034 7.52274 11.2273 7.74659 11.2273 8.02274C11.2273 8.29888 11.0034 8.52274 10.7273 8.52274H5.27271C4.99656 8.52274 4.77271 8.29888 4.77271 8.02274Z" fill="white"/>
</svg>
