<?xml version="1.0" encoding="UTF-8" standalone="no"?><!-- Generator: Gravit.io --><svg xmlns="http://www.w3.org/2000/svg" xmlns:xlink="http://www.w3.org/1999/xlink" style="isolation:isolate" viewBox="1.25 2 15 14.5" width="15pt" height="14.5pt"><g><circle vector-effect="non-scaling-stroke" cx="9" cy="15" r="1.25" fill="transparent" stroke-width="0.5" stroke="rgb(255,255,255)" stroke-linejoin="miter" stroke-linecap="square" stroke-miterlimit="3"/><circle vector-effect="non-scaling-stroke" cx="9" cy="15" r="1" fill="rgb(255,255,255)"/><circle vector-effect="non-scaling-stroke" cx="9" cy="3" r="1" fill="rgb(255,255,255)"/><path d=" M 12.828 14.243 C 12.438 13.852 12.438 13.219 12.828 12.828 C 13.219 12.438 13.852 12.438 14.243 12.828 C 14.633 13.219 14.633 13.852 14.243 14.243 C 13.852 14.633 13.219 14.633 12.828 14.243 Z " fill="transparent" r="NaN" vector-effect="non-scaling-stroke" stroke-width="0.375" stroke="rgb(255,255,255)" stroke-linejoin="miter" stroke-linecap="square" stroke-miterlimit="3"/><path d=" M 12.828 14.243 C 12.438 13.852 12.438 13.219 12.828 12.828 C 13.219 12.438 13.852 12.438 14.243 12.828 C 14.633 13.219 14.633 13.852 14.243 14.243 C 13.852 14.633 13.219 14.633 12.828 14.243 Z " fill="rgb(255,255,255)"/><path d=" M 3.757 5.172 C 3.367 4.781 3.367 4.148 3.757 3.757 C 4.148 3.367 4.781 3.367 5.172 3.757 C 5.562 4.148 5.562 4.781 5.172 5.172 C 4.781 5.562 4.148 5.562 3.757 5.172 Z " fill="transparent" r="NaN" vector-effect="non-scaling-stroke" stroke-width="0.875" stroke="rgb(255,255,255)" stroke-linejoin="miter" stroke-linecap="square" stroke-miterlimit="3"/><path d=" M 3.757 5.172 C 3.367 4.781 3.367 4.148 3.757 3.757 C 4.148 3.367 4.781 3.367 5.172 3.757 C 5.562 4.148 5.562 4.781 5.172 5.172 C 4.781 5.562 4.148 5.562 3.757 5.172 Z " fill="rgb(255,255,255)"/><path d=" M 15 10 C 14.448 10 14 9.552 14 9 C 14 8.448 14.448 8 15 8 C 15.552 8 16 8.448 16 9 C 16 9.552 15.552 10 15 10 Z " fill="transparent" r="NaN" vector-effect="non-scaling-stroke" stroke-width="0.25" stroke="rgb(255,255,255)" stroke-linejoin="miter" stroke-linecap="square" stroke-miterlimit="3"/><path d=" M 15 10 C 14.448 10 14 9.552 14 9 C 14 8.448 14.448 8 15 8 C 15.552 8 16 8.448 16 9 C 16 9.552 15.552 10 15 10 Z " fill="rgb(255,255,255)"/><path d=" M 3 10 C 2.448 10 2 9.552 2 9 C 2 8.448 2.448 8 3 8 C 3.552 8 4 8.448 4 9 C 4 9.552 3.552 10 3 10 Z " fill="transparent" r="NaN" vector-effect="non-scaling-stroke" stroke-width="0.75" stroke="rgb(255,255,255)" stroke-linejoin="miter" stroke-linecap="square" stroke-miterlimit="3"/><path d=" M 3 10 C 2.448 10 2 9.552 2 9 C 2 8.448 2.448 8 3 8 C 3.552 8 4 8.448 4 9 C 4 9.552 3.552 10 3 10 Z " fill="rgb(255,255,255)"/><path d=" M 14.243 5.172 C 13.852 5.562 13.219 5.562 12.828 5.172 C 12.438 4.781 12.438 4.148 12.828 3.757 C 13.219 3.367 13.852 3.367 14.243 3.757 C 14.633 4.148 14.633 4.781 14.243 5.172 Z " fill="transparent" r="NaN" vector-effect="non-scaling-stroke" stroke-width="0.125" stroke="rgb(255,255,255)" stroke-linejoin="miter" stroke-linecap="square" stroke-miterlimit="3"/><path d=" M 14.243 5.172 C 13.852 5.562 13.219 5.562 12.828 5.172 C 12.438 4.781 12.438 4.148 12.828 3.757 C 13.219 3.367 13.852 3.367 14.243 3.757 C 14.633 4.148 14.633 4.781 14.243 5.172 Z " fill="rgb(255,255,255)"/><path d=" M 5.172 14.243 C 4.781 14.633 4.148 14.633 3.757 14.243 C 3.367 13.852 3.367 13.219 3.757 12.828 C 4.148 12.438 4.781 12.438 5.172 12.828 C 5.562 13.219 5.562 13.852 5.172 14.243 Z " fill="transparent" r="NaN" vector-effect="non-scaling-stroke" stroke-width="0.625" stroke="rgb(255,255,255)" stroke-linejoin="miter" stroke-linecap="square" stroke-miterlimit="3"/><path d=" M 5.172 14.243 C 4.781 14.633 4.148 14.633 3.757 14.243 C 3.367 13.852 3.367 13.219 3.757 12.828 C 4.148 12.438 4.781 12.438 5.172 12.828 C 5.562 13.219 5.562 13.852 5.172 14.243 Z " fill="rgb(255,255,255)"/></g></svg>