<svg width="16" height="16" viewBox="0 0 16 16" fill="none" xmlns="http://www.w3.org/2000/svg">
<path fill-rule="evenodd" clip-rule="evenodd" d="M7.20331 2.66666C7.20331 2.22667 7.55999 1.87 7.99997 1.87C8.43996 1.87 8.79664 2.22667 8.79664 2.66666C8.79664 3.10665 8.43996 3.46333 7.99997 3.46333C7.55999 3.46333 7.20331 3.10665 7.20331 2.66666Z" fill="white"/>
<path fill-rule="evenodd" clip-rule="evenodd" d="M11.1231 3.58058C11.481 3.2226 12.0614 3.2226 12.4194 3.58058C12.7774 3.93857 12.7774 4.51897 12.4194 4.87695C12.0614 5.23493 11.481 5.23493 11.1231 4.87695C10.7651 4.51897 10.7651 3.93857 11.1231 3.58058Z" fill="white"/>
<path fill-rule="evenodd" clip-rule="evenodd" d="M12.2867 8.00001C12.2867 7.42195 12.7553 6.95334 13.3333 6.95334C13.9114 6.95334 14.38 7.42195 14.38 8.00001C14.38 8.57806 13.9114 9.04667 13.3333 9.04667C12.7553 9.04667 12.2867 8.57806 12.2867 8.00001Z" fill="white"/>
<path fill-rule="evenodd" clip-rule="evenodd" d="M10.9463 10.9463C11.4019 10.4907 12.1406 10.4907 12.5962 10.9463C13.0518 11.4019 13.0518 12.1406 12.5962 12.5962C12.1406 13.0518 11.4019 13.0518 10.9463 12.5962C10.4907 12.1406 10.4907 11.4019 10.9463 10.9463Z" fill="white"/>
<path fill-rule="evenodd" clip-rule="evenodd" d="M6.70331 13.3333C6.70331 12.6172 7.28385 12.0367 7.99997 12.0367C8.7161 12.0367 9.29664 12.6172 9.29664 13.3333C9.29664 14.0494 8.7161 14.63 7.99997 14.63C7.28385 14.63 6.70331 14.0494 6.70331 13.3333Z" fill="white"/>
<path fill-rule="evenodd" clip-rule="evenodd" d="M3.22703 10.7695C3.78027 10.2162 4.67725 10.2162 5.23049 10.7695C5.78374 11.3227 5.78374 12.2197 5.23049 12.7729C4.67725 13.3262 3.78027 13.3262 3.22703 12.7729C2.67378 12.2197 2.67378 11.3227 3.22703 10.7695Z" fill="white"/>
<path fill-rule="evenodd" clip-rule="evenodd" d="M1.12 8.00001C1.12 7.1458 1.81246 6.45334 2.66666 6.45334C3.52086 6.45334 4.21333 7.1458 4.21333 8.00001C4.21333 8.85421 3.52086 9.54667 2.66666 9.54667C1.81246 9.54667 1.12 8.85421 1.12 8.00001Z" fill="white"/>
<path fill-rule="evenodd" clip-rule="evenodd" d="M3.05025 3.05028C3.70112 2.3994 4.7564 2.3994 5.40727 3.05028C6.05814 3.70115 6.05814 4.75643 5.40727 5.4073C4.7564 6.05817 3.70112 6.05817 3.05025 5.4073C2.39937 4.75643 2.39937 3.70115 3.05025 3.05028Z" fill="white"/>
</svg>
