<?xml version="1.0" encoding="UTF-8" standalone="no"?><!-- Generator: Gravit.io --><svg xmlns="http://www.w3.org/2000/svg" xmlns:xlink="http://www.w3.org/1999/xlink" style="isolation:isolate" viewBox="0 0 18 18" width="18pt" height="18pt"><g><circle vector-effect="non-scaling-stroke" cx="9" cy="9" r="9" fill="none"/><circle vector-effect="non-scaling-stroke" cx="9" cy="15" r="1.2857142857142856" fill="transparent" stroke-width="0.571" stroke="rgb(255,255,255)" stroke-linejoin="miter" stroke-linecap="square" stroke-miterlimit="3"/><circle vector-effect="non-scaling-stroke" cx="9" cy="15" r="1" fill="rgb(255,255,255)"/><circle vector-effect="non-scaling-stroke" cx="9" cy="3" r="1" fill="rgb(255,255,255)"/><path d=" M 12.536 13.95 C 12.145 13.559 12.145 12.926 12.536 12.536 C 12.926 12.145 13.559 12.145 13.95 12.536 C 14.34 12.926 14.34 13.559 13.95 13.95 C 13.559 14.34 12.926 14.34 12.536 13.95 Z " fill="transparent" r="NaN" vector-effect="non-scaling-stroke" stroke-width="0.429" stroke="rgb(255,255,255)" stroke-linejoin="miter" stroke-linecap="square" stroke-miterlimit="3"/><path d=" M 12.536 13.95 C 12.145 13.559 12.145 12.926 12.536 12.536 C 12.926 12.145 13.559 12.145 13.95 12.536 C 14.34 12.926 14.34 13.559 13.95 13.95 C 13.559 14.34 12.926 14.34 12.536 13.95 Z " fill="rgb(255,255,255)"/><path d=" M 4.05 5.464 C 3.66 5.074 3.66 4.441 4.05 4.05 C 4.441 3.66 5.074 3.66 5.464 4.05 C 5.855 4.441 5.855 5.074 5.464 5.464 C 5.074 5.855 4.441 5.855 4.05 5.464 Z " fill="transparent" r="NaN" vector-effect="non-scaling-stroke" stroke-width="1" stroke="rgb(255,255,255)" stroke-linejoin="miter" stroke-linecap="square" stroke-miterlimit="3"/><path d=" M 4.05 5.464 C 3.66 5.074 3.66 4.441 4.05 4.05 C 4.441 3.66 5.074 3.66 5.464 4.05 C 5.855 4.441 5.855 5.074 5.464 5.464 C 5.074 5.855 4.441 5.855 4.05 5.464 Z " fill="rgb(255,255,255)"/><path d=" M 15 10 C 14.448 10 14 9.552 14 9 C 14 8.448 14.448 8 15 8 C 15.552 8 16 8.448 16 9 C 16 9.552 15.552 10 15 10 Z " fill="transparent" r="NaN" vector-effect="non-scaling-stroke" stroke-width="0.286" stroke="rgb(255,255,255)" stroke-linejoin="miter" stroke-linecap="square" stroke-miterlimit="3"/><path d=" M 15 10 C 14.448 10 14 9.552 14 9 C 14 8.448 14.448 8 15 8 C 15.552 8 16 8.448 16 9 C 16 9.552 15.552 10 15 10 Z " fill="rgb(255,255,255)"/><path d=" M 3 10 C 2.448 10 2 9.552 2 9 C 2 8.448 2.448 8 3 8 C 3.552 8 4 8.448 4 9 C 4 9.552 3.552 10 3 10 Z " fill="transparent" r="NaN" vector-effect="non-scaling-stroke" stroke-width="0.857" stroke="rgb(255,255,255)" stroke-linejoin="miter" stroke-linecap="square" stroke-miterlimit="3"/><path d=" M 3 10 C 2.448 10 2 9.552 2 9 C 2 8.448 2.448 8 3 8 C 3.552 8 4 8.448 4 9 C 4 9.552 3.552 10 3 10 Z " fill="rgb(255,255,255)"/><path d=" M 13.95 5.464 C 13.559 5.855 12.926 5.855 12.536 5.464 C 12.145 5.074 12.145 4.441 12.536 4.05 C 12.926 3.66 13.559 3.66 13.95 4.05 C 14.34 4.441 14.34 5.074 13.95 5.464 Z " fill="transparent" r="NaN" vector-effect="non-scaling-stroke" stroke-width="0.143" stroke="rgb(255,255,255)" stroke-linejoin="miter" stroke-linecap="square" stroke-miterlimit="3"/><path d=" M 13.95 5.464 C 13.559 5.855 12.926 5.855 12.536 5.464 C 12.145 5.074 12.145 4.441 12.536 4.05 C 12.926 3.66 13.559 3.66 13.95 4.05 C 14.34 4.441 14.34 5.074 13.95 5.464 Z " fill="rgb(255,255,255)"/><path d=" M 5.464 13.95 C 5.074 14.34 4.441 14.34 4.05 13.95 C 3.66 13.559 3.66 12.926 4.05 12.536 C 4.441 12.145 5.074 12.145 5.464 12.536 C 5.855 12.926 5.855 13.559 5.464 13.95 Z " fill="transparent" r="NaN" vector-effect="non-scaling-stroke" stroke-width="0.714" stroke="rgb(255,255,255)" stroke-linejoin="miter" stroke-linecap="square" stroke-miterlimit="3"/><path d=" M 5.464 13.95 C 5.074 14.34 4.441 14.34 4.05 13.95 C 3.66 13.559 3.66 12.926 4.05 12.536 C 4.441 12.145 5.074 12.145 5.464 12.536 C 5.855 12.926 5.855 13.559 5.464 13.95 Z " fill="rgb(255,255,255)"/></g></svg>