<?xml version="1.0" encoding="UTF-8" standalone="no"?><!-- Generator: Gravit.io --><svg xmlns="http://www.w3.org/2000/svg" xmlns:xlink="http://www.w3.org/1999/xlink" style="isolation:isolate" viewBox="202 220 18 18" width="18pt" height="18pt"><g><rect x="202" y="220" width="18" height="18" transform="matrix(1,0,0,1,0,0)" fill="none"/><path d=" M 211 220 C 208.151 220 205.857 222.294 205.857 225.143 L 205.857 226 C 204.913 226 204.143 226.77 204.143 227.714 L 204.143 236.286 C 204.143 237.23 204.913 238 205.857 238 L 216.143 238 C 217.087 238 217.857 237.23 217.857 236.286 L 217.857 227.714 C 217.857 226.77 217.087 226 216.143 226 L 216.143 225.143 C 216.143 222.294 213.849 220 211 220 Z  M 211 221.714 C 212.952 221.714 214.429 223.191 214.429 225.143 L 214.429 226 L 207.571 226 L 207.571 225.143 C 207.571 223.191 209.048 221.714 211 221.714 Z  M 211 230.286 C 211.945 230.286 212.714 231.055 212.714 232 C 212.714 232.945 211.945 233.714 211 233.714 C 210.055 233.714 209.286 232.945 209.286 232 C 209.286 231.055 210.055 230.286 211 230.286 Z " fill="rgb(255,255,255)"/></g></svg>