<svg width="16" height="16" viewBox="0 0 16 16" fill="none" xmlns="http://www.w3.org/2000/svg">
<path fill-rule="evenodd" clip-rule="evenodd" d="M6.7922 1.40941C6.28245 1.27283 5.64733 1.37348 4.84805 1.83495C4.03926 2.3019 3.63997 2.78016 3.50626 3.2613C3.37325 3.73992 3.46834 4.34707 3.93303 5.15194L5.28869 7.50002L13 7.50001C13.1326 7.50001 13.2598 7.55268 13.3535 7.64645C13.4473 7.74022 13.5 7.8674 13.5 8.00001V14C13.5 14.2761 13.2761 14.5 13 14.5H3C2.72386 14.5 2.5 14.2761 2.5 14V8.00001C2.5 7.8674 2.55268 7.74022 2.64645 7.64645C2.74021 7.55268 2.86739 7.50001 3 7.50001L4.13399 7.50001L3.06701 5.65194C2.5317 4.72477 2.30978 3.83191 2.54277 2.99354C2.77507 2.15768 3.4248 1.50196 4.34805 0.96892C5.28082 0.430384 6.19474 0.214049 7.05102 0.443488C7.9073 0.672927 8.5906 1.31723 9.12914 2.25L10.6291 4.84808C10.7672 5.08723 10.6853 5.39302 10.4461 5.53109C10.207 5.66916 9.90118 5.58723 9.76311 5.34808L8.26311 2.75C7.80165 1.95073 7.30194 1.546 6.7922 1.40941ZM3.5 8.50001V13.5H12.5V8.50001L3.5 8.50001Z" fill="white"/>
</svg>
