<svg xmlns="http://www.w3.org/2000/svg" width="16" height="16" fill="current" viewBox="0 0 16 16"><path fill="current" fill-rule="evenodd" d="M6.10355 3.10355C5.73039 3.47671 5.5 4.07707 5.5 4.99999V7.49999H10.5V4.99999C10.5 4.07707 10.2696 3.47671 9.89645 3.10355C9.52329 2.73039 8.92293 2.5 8 2.5C7.07707 2.5 6.47671 2.73039 6.10355 3.10355ZM11.5 7.49999V4.99999C11.5 3.92292 11.2304 3.02328 10.6036 2.39645C9.97671 1.76961 9.07707 1.5 8 1.5C6.92293 1.5 6.02329 1.76961 5.39645 2.39645C4.76961 3.02328 4.5 3.92292 4.5 4.99999V7.49999H3C2.72386 7.49999 2.5 7.72385 2.5 7.99999V14C2.5 14.2761 2.72386 14.5 3 14.5H13C13.2761 14.5 13.5 14.2761 13.5 14V7.99999C13.5 7.72385 13.2761 7.49999 13 7.49999H11.5ZM3.5 8.49999V13.5H12.5V8.49999H3.5Z" clip-rule="evenodd"/></svg>