<svg width="16" height="16" viewBox="0 0 16 16" fill="current" xmlns="http://www.w3.org/2000/svg">
<path d="M13.4318 1H10.4489C10.1325 1.00035 9.82924 1.12338 9.60555 1.34209C9.38186 1.56081 9.25604 1.85735 9.25568 2.16667V8.58333C9.25568 8.89275 9.12997 9.1895 8.90621 9.40829C8.68244 9.62708 8.37895 9.75 8.0625 9.75C7.74605 9.75 7.44256 9.62708 7.21879 9.40829C6.99503 9.1895 6.86932 8.89275 6.86932 8.58333V2.16667C6.86896 1.85735 6.74314 1.56081 6.51945 1.34209C6.29576 1.12338 5.99248 1.00035 5.67614 1H2.69318C2.37684 1.00035 2.07356 1.12338 1.84987 1.34209C1.62618 1.56081 1.50036 1.85735 1.5 2.16667V8.58333C1.5 10.2851 2.19135 11.9171 3.42198 13.1205C4.65261 14.3238 6.32171 14.9999 8.06213 15L8.11217 14.9999C11.7033 14.9738 14.625 12.0626 14.625 8.51012V2.16667C14.6246 1.85735 14.4988 1.56081 14.2751 1.34209C14.0514 1.12338 13.7482 1.00035 13.4318 1ZM13.4318 2.16667V4.5H10.4489V2.16667H13.4318ZM5.67614 2.16667V4.5H2.69318V2.16667H5.67614ZM8.10329 13.8332C8.08957 13.8333 8.07607 13.8333 8.06235 13.8333C6.63835 13.8333 5.27268 13.2802 4.26577 12.2956C3.25886 11.311 2.69318 9.97569 2.69318 8.58333V5.66667H5.67614V8.58333C5.67614 9.20217 5.92756 9.79566 6.37509 10.2332C6.82262 10.6708 7.4296 10.9167 8.0625 10.9167C8.6954 10.9167 9.30238 10.6708 9.74991 10.2332C10.1974 9.79566 10.4489 9.20217 10.4489 8.58333V5.66667H13.4318V8.51012C13.4318 11.4239 11.0414 13.8119 8.10329 13.8332Z" fill="current"/>
</svg>
