<svg width="16" height="16" viewBox="0 0 16 16" fill="none" xmlns="http://www.w3.org/2000/svg">
<path d="M11.25 1H4C3.44844 1 3 1.44844 3 2V14C3 14.5516 3.44844 15 4 15H11.25C11.8016 15 12.25 14.5516 12.25 14V2C12.25 1.44844 11.8016 1 11.25 1ZM11.125 13.875H4.125V2.125H11.125V13.875Z" fill="white"/>
<path d="M6.92413 12.6025C6.73827 12.4167 6.63385 12.1646 6.63385 11.9017C6.63385 11.6389 6.73827 11.3868 6.92413 11.201C7.10999 11.0151 7.36207 10.9107 7.62492 10.9107C7.88777 10.9107 8.13985 11.0151 8.32572 11.201C8.51158 11.3868 8.61599 11.6389 8.61599 11.9017C8.61599 12.1646 8.51158 12.4167 8.32572 12.6025C8.13985 12.7884 7.88777 12.8928 7.62492 12.8928C7.36207 12.8928 7.10999 12.7884 6.92413 12.6025Z" fill="white"/>
</svg>
