<?xml version="1.0" encoding="UTF-8" standalone="no"?><!-- Generator: Gravit.io --><svg xmlns="http://www.w3.org/2000/svg" xmlns:xlink="http://www.w3.org/1999/xlink" style="isolation:isolate" viewBox="18 0 18 18" width="18pt" height="18pt"><g><path d=" M 30.273 0 L 23.727 0 C 22.598 0 21.682 0.916 21.682 2.045 L 21.682 15.955 C 21.682 17.084 22.598 18 23.727 18 L 30.273 18 C 31.402 18 32.318 17.084 32.318 15.955 L 32.318 2.045 C 32.318 0.916 31.402 0 30.273 0 Z  M 27 17.182 C 26.321 17.182 25.773 16.634 25.773 15.955 C 25.773 15.275 26.321 14.727 27 14.727 C 27.679 14.727 28.227 15.275 28.227 15.955 C 28.227 16.634 27.679 17.182 27 17.182 Z  M 30.682 13.909 L 23.318 13.909 L 23.318 2.455 L 30.682 2.455 L 30.682 13.909 Z " fill="rgb(255,255,255)"/><rect x="18" y="0" width="18" height="18" transform="matrix(1,0,0,1,0,0)" fill="none"/></g></svg>