<svg width="16" height="16" viewBox="0 0 16 16" fill="current" xmlns="http://www.w3.org/2000/svg">
<path fill-rule="evenodd" clip-rule="evenodd" d="M7.69028 1.12852C7.73092 1.08778 7.77919 1.05546 7.83234 1.0334C7.88548 1.01135 7.94246 1 8 1C8.05754 1 8.11451 1.01135 8.16766 1.0334C8.22081 1.05546 8.26908 1.08778 8.30971 1.12852L10.0595 2.87832C10.1002 2.91899 10.1325 2.96728 10.1545 3.02042C10.1765 3.07356 10.1878 3.13052 10.1878 3.18804C10.1878 3.24556 10.1765 3.30251 10.1545 3.35565C10.1325 3.4088 10.1002 3.45708 10.0595 3.49775C10.0188 3.53843 9.97056 3.57069 9.91742 3.5927C9.86428 3.61471 9.80732 3.62604 9.7498 3.62604C9.69228 3.62604 9.63533 3.61471 9.58219 3.5927C9.52905 3.57069 9.48076 3.53843 9.44009 3.49775L8.43745 2.49424V5.81274C8.43745 5.92876 8.39136 6.04003 8.30932 6.12207C8.22729 6.20411 8.11602 6.2502 8 6.2502C7.88398 6.2502 7.77271 6.20411 7.69067 6.12207C7.60864 6.04003 7.56255 5.92876 7.56255 5.81274V2.49424L6.55991 3.49775C6.47777 3.57989 6.36636 3.62604 6.2502 3.62604C6.13403 3.62604 6.02262 3.57989 5.94048 3.49775C5.85834 3.41561 5.81219 3.3042 5.81219 3.18804C5.81219 3.07187 5.85834 2.96046 5.94048 2.87832L7.69028 1.12852ZM8 9.7498C8.11602 9.7498 8.22729 9.79589 8.30932 9.87793C8.39136 9.95997 8.43745 10.0712 8.43745 10.1873V13.5058L9.44009 12.5022C9.52223 12.4201 9.63364 12.374 9.7498 12.374C9.86597 12.374 9.97738 12.4201 10.0595 12.5022C10.1417 12.5844 10.1878 12.6958 10.1878 12.812C10.1878 12.9281 10.1417 13.0395 10.0595 13.1217L8.30971 14.8715C8.26908 14.9122 8.22081 14.9445 8.16766 14.9666C8.11451 14.9886 8.05754 15 8 15C7.94246 15 7.88548 14.9886 7.83234 14.9666C7.77919 14.9445 7.73092 14.9122 7.69028 14.8715L5.94048 13.1217C5.89981 13.081 5.86754 13.0327 5.84553 12.9796C5.82352 12.9264 5.81219 12.8695 5.81219 12.812C5.81219 12.7544 5.82352 12.6975 5.84553 12.6443C5.86754 12.5912 5.89981 12.5429 5.94048 12.5022C6.02262 12.4201 6.13403 12.374 6.2502 12.374C6.30771 12.374 6.36467 12.3853 6.41781 12.4073C6.47095 12.4293 6.51924 12.4616 6.55991 12.5022L7.56255 13.5058V10.1873C7.56255 10.0712 7.60864 9.95997 7.69067 9.87793C7.77271 9.79589 7.88398 9.7498 8 9.7498ZM1.12852 8.30971C1.08778 8.26908 1.05546 8.22081 1.0334 8.16766C1.01135 8.11451 1 8.05754 1 8C1 7.94246 1.01135 7.88548 1.0334 7.83234C1.05546 7.77919 1.08778 7.73092 1.12852 7.69028L2.87832 5.94048C2.96046 5.85834 3.07187 5.81219 3.18804 5.81219C3.3042 5.81219 3.41561 5.85834 3.49775 5.94048C3.57989 6.02262 3.62604 6.13403 3.62604 6.2502C3.62604 6.36636 3.57989 6.47777 3.49775 6.55991L2.49424 7.56255H5.81274C5.92876 7.56255 6.04003 7.60864 6.12207 7.69067C6.20411 7.77271 6.2502 7.88398 6.2502 8C6.2502 8.11602 6.20411 8.22729 6.12207 8.30932C6.04003 8.39136 5.92876 8.43745 5.81274 8.43745H2.49424L3.49775 9.44009C3.57989 9.52223 3.62604 9.63364 3.62604 9.7498C3.62604 9.86597 3.57989 9.97738 3.49775 10.0595C3.41561 10.1417 3.3042 10.1878 3.18804 10.1878C3.07187 10.1878 2.96046 10.1417 2.87832 10.0595L1.12852 8.30971ZM9.7498 8C9.7498 7.88398 9.79589 7.77271 9.87793 7.69067C9.95997 7.60864 10.0712 7.56255 10.1873 7.56255H13.5058L12.5022 6.55991C12.4616 6.51924 12.4293 6.47095 12.4073 6.41781C12.3853 6.36467 12.374 6.30771 12.374 6.2502C12.374 6.19268 12.3853 6.13572 12.4073 6.08258C12.4293 6.02944 12.4616 5.98115 12.5022 5.94048C12.5844 5.85834 12.6958 5.81219 12.812 5.81219C12.8695 5.81219 12.9264 5.82352 12.9796 5.84553C13.0327 5.86754 13.081 5.89981 13.1217 5.94048L14.8715 7.69028C14.9122 7.73092 14.9445 7.77919 14.9666 7.83234C14.9886 7.88548 15 7.94246 15 8C15 8.05754 14.9886 8.11451 14.9666 8.16766C14.9445 8.22081 14.9122 8.26908 14.8715 8.30971L13.1217 10.0595C13.081 10.1002 13.0327 10.1325 12.9796 10.1545C12.9264 10.1765 12.8695 10.1878 12.812 10.1878C12.7544 10.1878 12.6975 10.1765 12.6443 10.1545C12.5912 10.1325 12.5429 10.1002 12.5022 10.0595C12.4616 10.0188 12.4293 9.97056 12.4073 9.91742C12.3853 9.86428 12.374 9.80732 12.374 9.7498C12.374 9.69228 12.3853 9.63533 12.4073 9.58219C12.4293 9.52905 12.4616 9.48076 12.5022 9.44009L13.5058 8.43745H10.1873C10.0712 8.43745 9.95997 8.39136 9.87793 8.30932C9.79589 8.22729 9.7498 8.11602 9.7498 8Z" fill="current"/>
</svg>
