<?xml version="1.0" encoding="UTF-8" standalone="no"?><!-- Generator: Gravit.io --><svg xmlns="http://www.w3.org/2000/svg" xmlns:xlink="http://www.w3.org/1999/xlink" style="isolation:isolate" viewBox="0 0 18 18" width="18pt" height="18pt"><g><path d=" M 9 3.293 C 4.108 3.293 0.347 8.271 0.183 8.516 C -0.061 8.841 -0.061 9.16 0.183 9.485 C 0.347 9.729 4.108 14.708 9 14.708 C 13.892 14.708 17.653 9.73 17.817 9.485 C 18.061 9.159 18.061 8.841 17.817 8.516 C 17.653 8.271 13.892 3.293 9 3.293 Z  M 9 4.924 C 11.283 4.924 13.077 6.717 13.077 9 C 13.077 11.283 11.283 13.077 9 13.077 C 6.717 13.077 4.923 11.283 4.923 9 C 4.923 6.717 6.717 4.924 9 4.924 Z  M 9 6.962 C 7.875 6.963 6.962 7.875 6.962 9 C 6.962 10.125 7.876 11.039 9 11.039 C 10.124 11.039 11.038 10.125 11.038 9 C 11.038 7.876 10.124 6.962 9 6.962 Z " fill="rgb(255,255,255)"/><rect x="0" y="0" width="18" height="18" transform="matrix(1,0,0,1,0,0)" fill="none"/><line x1="15" y1="3" x2="3" y2="15" vector-effect="non-scaling-stroke" stroke-width="3" stroke="rgb(255,255,255)" stroke-linejoin="round" stroke-linecap="round" stroke-miterlimit="3"/></g></svg>