<svg xmlns="http://www.w3.org/2000/svg" width="16" height="16" fill="currentColor" viewBox="0 0 16 16"><path fill="currentColor" fill-rule="evenodd" d="M8.48161 3.04014C8.28318 2.64326 7.71682 2.64326 7.51839 3.04013L6.60621 4.86448C7.30364 5.09064 7.6553 5.18056 8 5.18056C8.3447 5.18056 8.69636 5.09064 9.39379 4.86448L8.48161 3.04014ZM9.88095 5.83881C9.09105 6.09947 8.54944 6.25748 8 6.25748C7.45056 6.25748 6.90895 6.09947 6.11905 5.83881L2.40971 13.2575H13.5903L9.88095 5.83881ZM6.55516 2.55852C7.15047 1.3679 8.84954 1.3679 9.44484 2.55852L14.9432 13.5551C15.0266 13.7221 15.0177 13.9203 14.9196 14.079C14.8215 14.2378 14.6482 14.3344 14.4615 14.3344H1.53846C1.35184 14.3344 1.17853 14.2378 1.08042 14.079C0.982308 13.9203 0.973389 13.7221 1.05685 13.5551L6.55516 2.55852Z" clip-rule="evenodd"/></svg>