<svg width="16" height="16" viewBox="0 0 16 16" fill="current" xmlns="http://www.w3.org/2000/svg">
<path fill-rule="evenodd" clip-rule="evenodd" d="M2.99613 2.61766C2.65692 2.27845 2.07692 2.5187 2.07692 2.99841V4.57102C2.98936 4.87225 3.40846 4.99125 3.819 4.99125C4.15305 4.99125 4.49276 4.91246 5.0993 4.72083L2.99613 2.61766ZM5.93853 5.58079C5.0255 5.88409 4.4266 6.06817 3.819 6.06817C3.29929 6.06817 2.78594 5.93349 2.07692 5.70472V13.5433H13.2375L5.93853 5.58079ZM1 2.99841C1 1.55926 2.74 0.838529 3.75763 1.85616L6.48029 4.57883C6.48581 4.58434 6.4912 4.58997 6.49647 4.59572L14.8585 13.7179C15.0027 13.8753 15.0404 14.1031 14.9544 14.2986C14.8684 14.494 14.6751 14.6202 14.4615 14.6202H1.53846C1.24108 14.6202 1 14.3791 1 14.0817V2.99841Z" fill="current"/>
</svg>
