<svg width="16" height="16" viewBox="0 0 16 16" fill="current" xmlns="http://www.w3.org/2000/svg">
<path fill-rule="evenodd" clip-rule="evenodd" d="M2.08121 4.03886C3.13982 2.52656 4.97591 1 7.99998 1C11.024 1 12.8601 2.52656 13.9187 4.03886C14.4436 4.7886 14.7789 5.53486 14.9832 6.09222C15.0857 6.37172 15.1561 6.60602 15.2014 6.77268C15.224 6.85608 15.2404 6.92273 15.2514 6.96986C15.2569 6.99343 15.261 7.01214 15.264 7.02563L15.2674 7.04194L15.2685 7.04708L15.2688 7.04888L15.269 7.04959C15.269 7.0499 15.2691 7.05018 14.72 7.16L15.2691 7.05018C15.3043 7.22602 15.2531 7.40807 15.1315 7.53984L8.41147 14.8198C8.30546 14.9347 8.15627 15 7.99998 15C7.84368 15 7.6945 14.9347 7.58849 14.8198L0.868488 7.53984C0.746855 7.40807 0.695684 7.22602 0.730853 7.05017L1.27998 7.16C0.730853 7.05017 0.730909 7.0499 0.730969 7.04959L0.731112 7.04888L0.731479 7.04708L0.732539 7.04194L0.736 7.02563C0.738917 7.01214 0.743072 6.99343 0.748572 6.96986C0.759569 6.92273 0.775959 6.85608 0.798595 6.77268C0.843831 6.60602 0.914223 6.37172 1.01671 6.09222C1.22107 5.53486 1.55639 4.7886 2.08121 4.03886ZM2.02456 6.6C2.03829 6.56057 2.05284 6.5198 2.06825 6.47778C2.24889 5.98514 2.54357 5.3314 2.99875 4.68114C3.74215 3.61913 4.90899 2.56682 6.7402 2.23057C6.30289 2.82006 5.96348 3.38216 5.71689 3.97891C5.38784 4.77519 5.23587 5.60362 5.20507 6.6H2.02456ZM5.34638 7.72L6.74006 12.2495L2.55901 7.72H5.34638ZM9.2599 12.2495L13.4409 7.72H10.6536L9.2599 12.2495ZM9.48176 7.72H6.51819L7.99998 12.5358L9.48176 7.72ZM9.67429 6.6H6.32567C6.35581 5.71814 6.49056 5.0393 6.75199 4.40664C7.01161 3.77839 7.40728 3.16801 7.99998 2.43394C8.59267 3.16801 8.98835 3.77839 9.24796 4.40664C9.5094 5.0393 9.64414 5.71814 9.67429 6.6ZM10.7949 6.6C10.7641 5.60362 10.6121 4.77519 10.2831 3.97891C10.0365 3.38216 9.69707 2.82006 9.25975 2.23057C11.091 2.56682 12.2578 3.61913 13.0012 4.68114C13.4564 5.3314 13.7511 5.98514 13.9317 6.47778C13.9471 6.5198 13.9617 6.56057 13.9754 6.6H10.7949Z" fill="current"/>
</svg>
