<?xml version="1.0" encoding="UTF-8" standalone="no"?><!-- Generator: Gravit.io --><svg xmlns="http://www.w3.org/2000/svg" xmlns:xlink="http://www.w3.org/1999/xlink" style="isolation:isolate" viewBox="380 247 40 39.915" width="40pt" height="39.915pt"><path d=" M 413.455 247.001 C 410.694 246.956 407.734 248.469 404.845 250.384 C 403.496 250.059 402.113 249.894 400.725 249.892 C 390.885 249.892 383.013 257.764 383.013 267.603 C 383.013 268.656 383.143 269.67 383.32 270.679 C 378.302 278.472 379.86 282.778 382.214 285.13 C 383.397 286.315 384.796 286.915 386.764 286.915 C 389.163 286.915 391.953 286.053 395.128 284.392 C 396.932 284.999 398.821 285.311 400.725 285.315 C 410.564 285.315 418.436 277.443 418.436 267.603 C 418.435 265.68 418.124 263.77 417.513 261.946 C 420.528 256.235 420.835 251.675 418.251 249.093 C 416.775 247.617 415.146 247.032 413.455 247.001 Z  M 413.27 252.659 C 413.723 252.682 413.985 252.883 414.132 253.029 C 414.239 253.245 414.286 254.119 413.823 255.672 C 413.022 254.808 412.136 254.025 411.18 253.336 C 412.217 252.828 412.839 252.643 413.27 252.659 Z  M 400.725 253.828 C 405.444 253.828 409.565 256.111 412.04 259.671 C 411.771 260.131 411.517 260.57 411.178 261.084 C 409.411 264.036 406.628 267.42 403.677 270.372 C 400.725 273.324 397.403 275.843 394.451 277.811 C 393.853 278.205 393.252 278.549 392.731 278.858 C 389.082 276.276 386.923 272.074 386.949 267.603 C 386.949 259.932 393.054 253.828 400.725 253.828 Z  M 414.439 266.804 C 414.455 267.072 414.5 267.336 414.5 267.603 C 414.5 275.275 408.396 281.379 400.725 281.379 C 400.471 281.379 400.233 281.334 399.987 281.318 C 402.685 279.291 405.234 277.071 407.612 274.676 C 410.08 272.226 412.362 269.594 414.439 266.804 Z  M 386.272 277.874 C 387.004 278.927 387.85 279.896 388.795 280.763 C 387.486 281.172 386.78 281.109 386.581 281.009 C 385.857 280.287 385.896 279.088 386.272 277.874 Z " fill="rgb(255,255,255)"/></svg>