<svg xmlns="http://www.w3.org/2000/svg" width="16" height="16" fill="currentColor" viewBox="0 0 16 16"><path fill="currentColor" fill-rule="evenodd" d="M1 4.41026C1 4.11287 1.24108 3.8718 1.53846 3.8718H14.4615C14.7589 3.8718 15 4.11287 15 4.41026V11.5897C15 11.8871 14.7589 12.1282 14.4615 12.1282H1.53846C1.24108 12.1282 1 11.8871 1 11.5897V4.41026ZM2.07692 4.94872V11.0513H13.9231V4.94872H2.07692ZM6.02564 7.28205C6.02564 6.98467 6.26672 6.74359 6.5641 6.74359H9.4359C9.73328 6.74359 9.97436 6.98467 9.97436 7.28205V8.71795C9.97436 9.01533 9.73328 9.25641 9.4359 9.25641H6.5641C6.26672 9.25641 6.02564 9.01533 6.02564 8.71795V7.28205ZM7.10256 7.82051V8.17949H8.89744V7.82051H7.10256Z" clip-rule="evenodd"/></svg>