<svg width="9" height="17" viewBox="0 0 9 17" fill="current" xmlns="http://www.w3.org/2000/svg"><path d="M3.12177 12.0504C3.12177 11.4119 3.17256 10.8822 3.27415 10.4613C3.37574 10.0259 3.55714 9.63409 3.81837 9.28579C4.0941 8.92297 4.47868 8.55291 4.97211 8.17558C5.50907 7.75472 5.9517 7.3774 6.3 7.04361C6.6483 6.70982 6.90952 6.35427 7.08367 5.97694C7.25782 5.58511 7.3449 5.11345 7.3449 4.56198C7.3449 3.67672 7.06916 3.0164 6.51769 2.58102C5.96621 2.13114 5.22608 1.90619 4.29728 1.90619C3.65873 1.90619 3.07823 1.98601 2.55578 2.14565C2.04785 2.29077 1.53991 2.48669 1.03197 2.7334L0.574829 1.68851C1.18435 1.39826 1.77936 1.18057 2.35986 1.03545C2.95487 0.875808 3.62245 0.79599 4.36258 0.79599C5.65419 0.79599 6.67007 1.12252 7.4102 1.77558C8.16485 2.41413 8.54218 3.33567 8.54218 4.54021C8.54218 5.23681 8.42608 5.83182 8.19388 6.32524C7.97619 6.80415 7.66417 7.23953 7.25782 7.63136C6.85147 8.0232 6.37256 8.42955 5.82109 8.85041C5.38571 9.1842 5.04467 9.50347 4.79796 9.80824C4.56576 10.113 4.39887 10.4468 4.29728 10.8096C4.2102 11.1724 4.16667 11.6223 4.16667 12.1593V12.464H3.12177V12.0504ZM2.7517 15.7076C2.7517 14.9964 3.07097 14.6409 3.70952 14.6409C4.34807 14.6409 4.66735 14.9964 4.66735 15.7076C4.66735 16.4332 4.34807 16.796 3.70952 16.796C3.07097 16.796 2.7517 16.4332 2.7517 15.7076Z" fill="current"/></svg>