<svg xmlns="http://www.w3.org/2000/svg" width="16" height="16" fill="current" viewBox="0 0 16 16"><path fill="current" d="M8.27246 10.9404H7.21777C7.22363 10.4424 7.27344 10.0205 7.36719 9.6748C7.46094 9.3291 7.61328 9.00977 7.82422 8.7168C8.03516 8.42383 8.31934 8.10156 8.67676 7.75C8.9873 7.43945 9.2627 7.15234 9.50293 6.88867C9.74316 6.61914 9.93066 6.32324 10.0654 6.00098C10.2061 5.67871 10.2764 5.2832 10.2764 4.81445C10.2764 4.35156 10.1943 3.94434 10.0303 3.59277C9.86621 3.24121 9.62012 2.96582 9.29199 2.7666C8.96387 2.56738 8.55371 2.46777 8.06152 2.46777C7.61035 2.46777 7.20605 2.55566 6.84863 2.73145C6.49707 2.90723 6.21875 3.16211 6.01367 3.49609C5.81445 3.82422 5.70898 4.22266 5.69727 4.69141H4.65137C4.66309 4.02344 4.82129 3.45508 5.12598 2.98633C5.43652 2.51172 5.84668 2.15137 6.35645 1.90527C6.87207 1.65332 7.44043 1.52734 8.06152 1.52734C8.76465 1.52734 9.35645 1.66504 9.83691 1.94043C10.3232 2.21582 10.6924 2.59961 10.9443 3.0918C11.2021 3.58398 11.3311 4.15527 11.3311 4.80566C11.3311 5.32715 11.2432 5.79883 11.0674 6.2207C10.8916 6.63672 10.6484 7.0293 10.3379 7.39844C10.0273 7.76758 9.66699 8.13965 9.25684 8.51465C8.88184 8.83691 8.62402 9.20605 8.4834 9.62207C8.34277 10.0322 8.27246 10.4717 8.27246 10.9404ZM7.07715 13.876C7.07715 13.6768 7.1416 13.5098 7.27051 13.375C7.39941 13.2344 7.5752 13.1641 7.79785 13.1641C8.02051 13.1641 8.19629 13.2344 8.3252 13.375C8.45996 13.5098 8.52734 13.6768 8.52734 13.876C8.52734 14.0693 8.45996 14.2363 8.3252 14.377C8.19629 14.5117 8.02051 14.5791 7.79785 14.5791C7.5752 14.5791 7.39941 14.5117 7.27051 14.377C7.1416 14.2363 7.07715 14.0693 7.07715 13.876Z"/></svg>