<svg width="16" height="16" viewBox="0 0 16 16" fill="current" xmlns="http://www.w3.org/2000/svg">
<path fill-rule="evenodd" clip-rule="evenodd" d="M3.23222 1.25875C3.32989 1.09808 3.5043 1 3.69233 1H9.43592C9.62395 1 9.79836 1.09808 9.89603 1.25875C9.99371 1.41942 10.0005 1.6194 9.91394 1.78632L8.40714 4.69231H8.47866C8.77604 4.69231 9.01712 4.93339 9.01712 5.23077V6.21953L12.0739 4.74574C12.2407 4.66529 12.4372 4.67626 12.5941 4.77477C12.751 4.87329 12.8462 5.04553 12.8462 5.23077V10.7692C12.8462 10.9545 12.751 11.1267 12.5941 11.2252C12.4372 11.3237 12.2407 11.3347 12.0739 11.2543L9.01712 9.78047V10.7692C9.01712 11.0666 8.77604 11.3077 8.47866 11.3077H8.40714L9.91394 14.2137C10.0005 14.3806 9.99371 14.5806 9.89603 14.7412C9.79836 14.9019 9.62395 15 9.43592 15H3.69233C3.5043 15 3.32989 14.9019 3.23222 14.7412C3.13455 14.5806 3.12776 14.3806 3.21431 14.2137L4.72112 11.3077H4.6496C4.35221 11.3077 4.11113 11.0666 4.11113 10.7692V5.23077C4.11113 4.93339 4.35221 4.69231 4.6496 4.69231H4.72112L3.21431 1.78632C3.12776 1.6194 3.13455 1.41942 3.23222 1.25875ZM5.18806 5.76923V10.2308H7.94019V5.76923H5.18806ZM7.19405 4.69231H5.9342L4.57808 2.07692H8.55018L7.19405 4.69231ZM7.19405 11.3077H5.9342L4.57808 13.9231H8.55018L7.19405 11.3077ZM9.01712 8.58491L11.7693 9.91184V6.08816L9.01712 7.41509V8.58491Z" fill="current"/>
</svg>
