<svg width="16" height="16" viewBox="0 0 16 16" fill="none" xmlns="http://www.w3.org/2000/svg">
<path d="M5.66667 4.91667H12.7746L10.6822 2.82483L11.5 2L15 5.5L11.5 9L10.6822 8.17458L12.7728 6.08333H5.66667C4.73841 6.08333 3.84817 6.45208 3.19179 7.10846C2.53542 7.76484 2.16667 8.65508 2.16667 9.58333C2.16667 10.5116 2.53542 11.4018 3.19179 12.0582C3.84817 12.7146 4.73841 13.0833 5.66667 13.0833H10.3333V14.25H5.66667C4.42899 14.25 3.24201 13.7583 2.36684 12.8832C1.49167 12.008 1 10.821 1 9.58333C1 8.34566 1.49167 7.15867 2.36684 6.2835C3.24201 5.40833 4.42899 4.91667 5.66667 4.91667Z" fill="white"/>
</svg>
