<svg xmlns="http://www.w3.org/2000/svg" width="14" height="13" fill="currentColor" viewBox="0 0 14 13"><path fill="currentColor" d="M4.66667 2.91667H11.7746L9.68217 0.824833L10.5 0L14 3.5L10.5 7L9.68217 6.17458L11.7728 4.08333H4.66667C3.73841 4.08333 2.84817 4.45208 2.19179 5.10846C1.53541 5.76484 1.16667 6.65508 1.16667 7.58333C1.16667 8.51159 1.53541 9.40183 2.19179 10.0582C2.84817 10.7146 3.73841 11.0833 4.66667 11.0833H9.33333V12.25H4.66667C3.42899 12.25 2.242 11.7583 1.36683 10.8832C0.491665 10.008 0 8.82101 0 7.58333C0 6.34566 0.491665 5.15867 1.36683 4.2835C2.242 3.40833 3.42899 2.91667 4.66667 2.91667Z"/></svg>