<?xml version="1.0" encoding="UTF-8" standalone="no"?><!-- Generator: Gravit.io --><svg xmlns="http://www.w3.org/2000/svg" xmlns:xlink="http://www.w3.org/1999/xlink" style="isolation:isolate" viewBox="240 247 40 40" width="40pt" height="40pt"><path d=" M 278.976 247.015 C 277 247.103 272.454 247.584 267.938 249.834 C 265.871 250.852 263.983 252.199 262.346 253.821 C 259.514 256.652 255.494 261.459 252.133 265.585 L 245.569 265.487 C 245.35 265.44 245.063 265.524 244.936 265.683 L 241.24 270.397 C 241.112 270.549 241.217 270.739 241.435 270.785 L 247.075 272.002 C 247.069 272.148 247.13 272.372 247.27 272.78 L 246.201 275.113 C 246.201 275.113 245.75 275.885 248.437 278.565 C 251.118 281.244 251.89 280.801 251.89 280.801 L 254.273 279.732 C 254.716 279.877 254.935 279.889 255.051 279.877 L 256.266 285.614 C 256.31 285.832 256.504 285.936 256.655 285.809 L 261.373 282.114 C 261.53 281.993 261.616 281.7 261.568 281.482 L 261.47 274.773 C 265.615 271.387 270.442 267.408 273.189 264.661 C 274.811 263.024 276.157 261.136 277.177 259.07 C 280.162 253.06 279.998 247.013 279.998 247.013 C 279.998 247.013 279.633 246.984 278.976 247.013 L 278.976 247.015 Z  M 267.84 255.96 C 269.61 255.966 271.044 257.398 271.051 259.168 C 271.045 260.938 269.611 262.371 267.84 262.377 C 266.07 262.371 264.636 260.938 264.63 259.168 C 264.636 257.398 266.07 255.964 267.84 255.958 L 267.84 255.96 Z  M 244.256 275.989 C 243.884 276.305 243.495 276.602 243.137 276.961 C 239.514 280.583 240.025 286.975 240.025 286.975 C 240.025 286.975 246.42 287.486 250.043 283.864 C 250.401 283.506 250.704 283.117 251.016 282.745 C 250.765 282.612 250.521 282.466 250.284 282.308 C 247.234 284.648 242.7 284.301 242.7 284.301 C 242.7 284.301 242.353 279.762 244.693 276.717 C 244.536 276.482 244.39 276.239 244.256 275.989 Z " fill="rgb(255,255,255)"/></svg>