<svg xmlns="http://www.w3.org/2000/svg" width="16" height="16" fill="current" viewBox="0 0 16 16"><path fill="current" d="M8 2.16628C6.4529 2.16628 4.96917 2.78087 3.87521 3.87483C2.78125 4.96879 2.16667 6.45252 2.16667 7.99962C2.16667 8.15433 2.10521 8.3027 1.99581 8.4121C1.88642 8.52149 1.73804 8.58295 1.58333 8.58295C1.42862 8.58295 1.28025 8.52149 1.17085 8.4121C1.06146 8.3027 1 8.15433 1 7.99962C1.00006 6.82994 1.29323 5.67893 1.85271 4.65174C2.4122 3.62455 3.22016 2.75393 4.20278 2.11943C5.18541 1.48493 6.31136 1.10677 7.47778 1.01951C8.64419 0.932247 9.81388 1.13866 10.88 1.6199C11.9461 2.10113 12.8746 2.84184 13.5807 3.77435C14.2868 4.70686 14.7479 5.80144 14.922 6.95809C15.0961 8.11473 14.9776 9.29657 14.5773 10.3956C14.177 11.4947 13.5077 12.4759 12.6305 13.2496H13.8333C13.988 13.2496 14.1364 13.3111 14.2458 13.4205C14.3552 13.5299 14.4167 13.6782 14.4167 13.8329C14.4167 13.9877 14.3552 14.136 14.2458 14.2454C14.1364 14.3548 13.988 14.4163 13.8333 14.4163H10.9167C10.762 14.4163 10.6136 14.3548 10.5042 14.2454C10.3948 14.136 10.3333 13.9877 10.3333 13.8329V13.7291V10.9163C10.3333 10.7616 10.3948 10.6132 10.5042 10.5038C10.6136 10.3944 10.762 10.3329 10.9167 10.3329C11.0714 10.3329 11.2197 10.3944 11.3291 10.5038C11.4385 10.6132 11.5 10.7616 11.5 10.9163V12.6663C12.4795 11.9317 13.2029 10.9076 13.568 9.73893C13.933 8.5703 13.9211 7.31644 13.534 6.15495C13.1468 4.99347 12.404 3.98324 11.4108 3.26737C10.4176 2.5515 9.22431 2.16628 8 2.16628ZM5.66667 7.99962C5.66667 7.38078 5.9125 6.78729 6.35008 6.3497C6.78767 5.91212 7.38116 5.66628 8 5.66628C8.61884 5.66628 9.21233 5.91212 9.64991 6.3497C10.0875 6.78729 10.3333 7.38078 10.3333 7.99962C10.3333 8.61845 10.0875 9.21195 9.64991 9.64953C9.21233 10.0871 8.61884 10.3329 8 10.3329C7.38116 10.3329 6.78767 10.0871 6.35008 9.64953C5.9125 9.21195 5.66667 8.61845 5.66667 7.99962ZM8 6.83295C7.69058 6.83295 7.39383 6.95587 7.17504 7.17466C6.95625 7.39345 6.83333 7.6902 6.83333 7.99962C6.83333 8.30904 6.95625 8.60578 7.17504 8.82457C7.39383 9.04337 7.69058 9.16628 8 9.16628C8.30942 9.16628 8.60616 9.04337 8.82496 8.82457C9.04375 8.60578 9.16667 8.30904 9.16667 7.99962C9.16667 7.6902 9.04375 7.39345 8.82496 7.17466C8.60616 6.95587 8.30942 6.83295 8 6.83295Z"/></svg>