<?xml version="1.0" encoding="UTF-8" standalone="no"?><!-- Generator: Gravit.io --><svg xmlns="http://www.w3.org/2000/svg" xmlns:xlink="http://www.w3.org/1999/xlink" style="isolation:isolate" viewBox="300.632 33 16.736 18" width="16.736pt" height="18pt"><path d=" M 314.436 33.002 C 314.289 32.985 314.118 33.075 313.979 33.284 L 312.611 35.154 C 311.477 34.61 310.236 34.327 308.979 34.328 C 304.382 34.328 300.632 38.077 300.632 42.675 L 300.632 42.805 L 300.676 43.48 L 300.676 43.588 L 300.785 44.219 L 301.284 44.957 L 302.176 45.044 L 302.806 44.392 L 302.85 43.892 L 302.763 43.371 L 302.719 42.74 L 302.719 42.631 C 302.733 39.187 305.535 36.405 308.979 36.415 C 309.838 36.415 310.631 36.561 311.349 36.849 L 310.241 38.371 C 309.963 38.789 309.952 39.061 310.371 39.132 L 316.762 40.023 C 317.248 40.094 317.465 39.814 317.327 39.327 L 314.827 33.35 C 314.724 33.141 314.583 33.019 314.436 33.003 L 314.436 33.002 L 314.436 33.002 Z  M 316.088 43.675 L 315.24 44 L 315.001 44.413 L 314.892 44.761 L 314.74 45.174 L 314.718 45.174 L 314.544 45.544 L 314.523 46.435 L 315.196 47.022 L 316.089 46.849 L 316.414 46.479 L 316.632 46.045 L 316.871 45.436 L 316.893 45.349 L 317.001 45.023 L 316.85 44.132 L 316.088 43.675 L 316.088 43.675 Z  M 303.284 46.153 L 302.458 46.501 L 302.219 47.37 L 302.414 47.805 L 302.502 47.936 L 302.567 48.023 L 303.045 48.545 L 303.11 48.609 L 303.502 48.957 L 304.371 49.218 L 305.111 48.718 L 305.175 47.827 L 304.914 47.414 L 304.589 47.131 L 304.523 47.066 L 304.176 46.696 L 304.132 46.632 L 304.11 46.609 L 304.089 46.566 L 303.284 46.153 L 303.284 46.153 Z  M 313.109 47.588 L 312.653 47.74 L 312.24 48.023 L 312.175 48.066 L 311.762 48.284 L 311.74 48.305 L 311.61 48.348 L 311.023 49.022 L 311.175 49.913 L 311.957 50.348 L 312.436 50.261 L 312.588 50.197 L 312.674 50.153 L 313.24 49.848 L 313.327 49.805 L 313.806 49.479 L 314.262 48.718 L 313.957 47.87 L 313.109 47.588 L 313.109 47.588 Z  M 307.524 48.762 L 306.654 48.935 L 306.219 49.718 L 306.566 50.544 L 307.001 50.783 L 307.24 50.848 L 307.349 50.87 L 308.066 50.979 L 308.175 50.979 L 308.589 51 L 309.414 50.652 L 309.675 49.805 L 309.153 49.066 L 308.697 48.914 L 308.284 48.892 L 307.762 48.827 L 307.697 48.805 L 307.675 48.805 L 307.524 48.762 L 307.524 48.762 Z  M 307 43 C 307 41.896 307.896 41 309 41 C 310.104 41 311 41.896 311 43 C 311 44.104 310.104 45 309 45 C 307.896 45 307 44.104 307 43 Z " fill-rule="evenodd" fill="rgb(255,255,255)"/></svg>