<svg width="14" height="14" viewBox="0 0 14 14" fill="currentColor" xmlns="http://www.w3.org/2000/svg">
<path d="M13.8308 3.08584L10.9142 0.169176C10.8597 0.115112 10.795 0.0723392 10.7239 0.0433098C10.6529 0.0142805 10.5768 -0.000434104 10.5 9.75e-06H1.16667C0.857247 9.75e-06 0.560501 0.122926 0.341708 0.341718C0.122916 0.56051 0 0.857257 0 1.16668V12.8333C0 13.1428 0.122916 13.4395 0.341708 13.6583C0.560501 13.8771 0.857247 14 1.16667 14H12.8333C13.1427 14 13.4395 13.8771 13.6583 13.6583C13.8771 13.4395 14 13.1428 14 12.8333V3.50001C14.0004 3.42324 13.9857 3.34713 13.9567 3.27606C13.9277 3.20499 13.8849 3.14035 13.8308 3.08584ZM4.66666 1.16668H9.33333V3.50001H4.66666V1.16668ZM9.33333 12.8333H4.66666V8.16667H9.33333V12.8333ZM10.5 12.8333V8.16667C10.5 7.85725 10.3771 7.56051 10.1583 7.34171C9.93949 7.12292 9.64275 7.00001 9.33333 7.00001H4.66666C4.35724 7.00001 4.0605 7.12292 3.84171 7.34171C3.62291 7.56051 3.5 7.85725 3.5 8.16667V12.8333H1.16667V1.16668H3.5V3.50001C3.5 3.80943 3.62291 4.10617 3.84171 4.32496C4.0605 4.54376 4.35724 4.66667 4.66666 4.66667H9.33333C9.64275 4.66667 9.93949 4.54376 10.1583 4.32496C10.3771 4.10617 10.5 3.80943 10.5 3.50001V1.40584L12.8333 3.73917V12.8333H10.5Z" fill="currentColor"/>
</svg>
