<?xml version="1.0" encoding="UTF-8" standalone="no"?><!-- Generator: Gravit.io --><svg xmlns="http://www.w3.org/2000/svg" xmlns:xlink="http://www.w3.org/1999/xlink" style="isolation:isolate" viewBox="8 33 18 18" width="18pt" height="18pt"><path d=" M 22 33 L 10 33 C 8.895 33 8 33.895 8 35 L 8 49 C 8 50.105 8.895 51 10 51 L 24 51 C 25.1 51 26 50.1 26 49 L 26 37 L 22 33 Z  M 17 49 C 15.34 49 14 47.66 14 46 C 14 44.34 15.34 43 17 43 C 18.66 43 20 44.34 20 46 C 20 47.66 18.66 49 17 49 Z  M 20 39 L 10 39 L 10 35 L 20 35 L 20 39 Z " fill="rgb(255,255,255)"/></svg>