<svg xmlns="http://www.w3.org/2000/svg" width="16" height="16" fill="current" viewBox="0 0 16 16"><path fill="current" d="M14.8308 4.08584L11.9142 1.16918C11.8597 1.11511 11.795 1.07234 11.7239 1.04331C11.6529 1.01428 11.5768 0.999566 11.5 1.00001H2.16667C1.85725 1.00001 1.5605 1.12293 1.34171 1.34172C1.12292 1.56051 1 1.85726 1 2.16668V13.8333C1 14.1428 1.12292 14.4395 1.34171 14.6583C1.5605 14.8771 1.85725 15 2.16667 15H13.8333C14.1427 15 14.4395 14.8771 14.6583 14.6583C14.8771 14.4395 15 14.1428 15 13.8333V4.50001C15.0004 4.42324 14.9857 4.34713 14.9567 4.27606C14.9277 4.20499 14.8849 4.14035 14.8308 4.08584ZM5.66666 2.16668H10.3333V4.50001H5.66666V2.16668ZM10.3333 13.8333H5.66666V9.16667H10.3333V13.8333ZM11.5 13.8333V9.16667C11.5 8.85725 11.3771 8.56051 11.1583 8.34171C10.9395 8.12292 10.6427 8 10.3333 8H5.66666C5.35724 8 5.0605 8.12292 4.84171 8.34171C4.62291 8.56051 4.5 8.85725 4.5 9.16667V13.8333H2.16667V2.16668H4.5V4.50001C4.5 4.80943 4.62291 5.10617 4.84171 5.32496C5.0605 5.54376 5.35724 5.66667 5.66666 5.66667H10.3333C10.6427 5.66667 10.9395 5.54376 11.1583 5.32496C11.3771 5.10617 11.5 4.80943 11.5 4.50001V2.40584L13.8333 4.73917V13.8333H11.5Z"/></svg>