<svg xmlns="http://www.w3.org/2000/svg" width="16" height="16" fill="current" viewBox="0 0 16 16"><path fill="current" fill-rule="evenodd" d="M7.00593 1C7.30331 1 7.54439 1.24108 7.54439 1.53846V4.47929H8.45563V1.53846C8.45563 1.24108 8.69671 1 8.9941 1C9.29148 1 9.53256 1.24108 9.53256 1.53846V14.4615C9.53256 14.7589 9.29148 15 8.9941 15C8.69671 15 8.45563 14.7589 8.45563 14.4615V11.5207H7.54439V14.4615C7.54439 14.7589 7.30331 15 7.00593 15C6.70855 15 6.46747 14.7589 6.46747 14.4615V1.53846C6.46747 1.24108 6.70855 1 7.00593 1ZM7.54439 10.4438H8.45563V5.55621H7.54439V10.4438Z" clip-rule="evenodd"/></svg>