<svg xmlns="http://www.w3.org/2000/svg" width="16" height="16" fill="currentColor" viewBox="0 0 16 16"><path fill="currentColor" fill-rule="evenodd" d="M1.15771 6.97311C1.25869 6.87213 1.39565 6.8154 1.53846 6.8154H14.4615C14.7589 6.8154 15 7.05647 15 7.35385L15 8.64615C15 8.78896 14.9433 8.92593 14.8423 9.02691C14.7413 9.12789 14.6044 9.18463 14.4615 9.18463H1.53848C1.2411 9.18463 1.00002 8.94355 1.00002 8.64617L1 7.35387C0.999998 7.21106 1.05673 7.0741 1.15771 6.97311ZM2.07693 7.89232L2.07693 8.1077H4.23077L4.23077 7.89232H2.07693ZM5.30769 7.89232L5.3077 8.1077H7.46154L7.46153 7.89232H5.30769ZM8.53846 7.89232L8.53846 8.1077H10.6923L10.6923 7.89232H8.53846ZM11.7692 7.89232L11.7692 8.1077H13.9231L13.9231 7.89232H11.7692Z" clip-rule="evenodd"/></svg>