<svg xmlns="http://www.w3.org/2000/svg" width="16" height="16" fill="current" viewBox="0 0 16 16"><path fill="current" fill-rule="evenodd" d="M1 3.6923C1 3.39492 1.24108 3.15384 1.53846 3.15384H14.4615C14.7589 3.15384 15 3.39492 15 3.6923V12.3077C15 12.6051 14.7589 12.8461 14.4615 12.8461H1.53846C1.24108 12.8461 1 12.6051 1 12.3077V3.6923ZM2.07692 4.23076V5.30769H3.15385V4.23076H2.07692ZM4.23077 4.23076V5.30769H5.30769V4.23076H4.23077ZM6.38462 4.23076V5.30769H7.46154V4.23076H6.38462ZM8.53846 4.23076V5.30769H9.61539V4.23076H8.53846ZM10.6923 4.23076V5.30769H11.7692V4.23076H10.6923ZM12.8462 4.23076V5.30769H13.9231V4.23076H12.8462ZM13.9231 6.38461H12.8462V7.46153H13.9231V6.38461ZM13.9231 8.53845H12.8462V9.61538H13.9231V8.53845ZM13.9231 10.6923H12.8462V11.7692H13.9231V10.6923ZM11.7692 11.7692V10.6923H10.6923V11.7692H11.7692ZM9.61539 11.7692V10.6923H8.53846V11.7692H9.61539ZM7.46154 11.7692V10.6923H6.38462V11.7692H7.46154ZM5.30769 11.7692V10.6923H4.23077V11.7692H5.30769ZM3.15385 11.7692V10.6923H2.07692V11.7692H3.15385ZM2.07692 9.61538H3.15385V8.53845H2.07692V9.61538ZM2.07692 7.46153H3.15385V6.38461H2.07692V7.46153ZM4.23077 6.38461V7.46153H5.30769V6.38461H4.23077ZM6.38462 6.38461V7.46153H7.46154V6.38461H6.38462ZM8.53846 6.38461V7.46153H9.61539V6.38461H8.53846ZM10.6923 6.38461V7.46153H11.7692V6.38461H10.6923ZM11.7692 8.53845H10.6923V9.61538H11.7692V8.53845ZM9.61539 9.61538V8.53845H8.53846V9.61538H9.61539ZM7.46154 9.61538V8.53845H6.38462V9.61538H7.46154ZM5.30769 9.61538V8.53845H4.23077V9.61538H5.30769Z" clip-rule="evenodd"/></svg>