<svg xmlns="http://www.w3.org/2000/svg" width="64" height="64" fill="none" viewBox="0 0 64 64"><path fill="url(#paint0_linear_415_692)" d="M50.0223 6.83103C44.3063 4.91946 39.1502 3.97594 34.5542 4.00047C27.7959 4.00047 22.5437 5.43442 18.7978 8.30232C15.0781 11.1451 13.2183 15.1702 13.2183 20.3777C13.2183 24.3777 14.3538 27.6144 16.625 30.0877C16.7078 30.1778 16.8219 30.2325 16.9438 30.2431L47.0215 32.8659C47.4813 32.9059 47.7286 32.3711 47.376 32.0732C44.8779 29.9623 41.0886 28.2776 36.008 27.0191C32.0788 26.038 29.3676 24.9688 27.8744 23.8116C26.4075 22.6544 25.6741 21.0947 25.6741 19.1324C25.6741 17.3211 26.473 15.8872 28.0709 14.8306C29.6688 13.774 31.8561 13.2457 34.6328 13.2457C37.9585 13.2457 42.2438 14.1199 47.4886 15.8685C47.7619 15.9596 48.0565 15.8034 48.1324 15.5255L50.3439 7.43476C50.4135 7.18004 50.2727 6.91478 50.0223 6.83103Z"/><path fill="url(#paint1_linear_415_692)" d="M30.2711 59.9999C37.239 59.9999 42.5959 58.5786 46.3418 55.7358C50.0946 52.8826 51.9806 48.7968 51.9998 43.4785L34.9862 37.9624C36.6103 38.692 37.7629 39.5221 38.444 40.4529C39.1251 41.3838 39.4656 42.541 39.4656 43.9246C39.4656 46.0881 38.6536 47.7862 37.0295 49.0189C35.4316 50.2264 33.1526 50.8302 30.1925 50.8302C28.1493 50.8302 25.9882 50.5912 23.7092 50.1132C21.5325 49.6327 18.7584 48.8193 15.3868 47.6732C15.1232 47.5836 14.8363 47.7254 14.7489 47.9897L12.1503 55.8473C12.0663 56.1015 12.1977 56.3771 12.4486 56.4704C18.777 58.8234 24.7178 59.9999 30.2711 59.9999Z"/><path fill="url(#paint2_linear_415_692)" d="M27.8744 23.8116C26.4075 22.6544 25.6741 21.0947 25.6741 19.1324C25.4644 12.5182 28.9372 9.49826 34.5542 4.00049C27.7959 4.00049 22.5437 5.43444 18.7978 8.30234C15.0781 11.1451 13.2183 15.1702 13.2183 20.3777C13.2183 24.4531 14.397 27.7361 16.7546 30.2267C19.1122 32.7172 22.845 34.5537 27.953 35.7361C31.0179 36.4656 33.3623 37.2077 34.9864 37.9625C36.6105 38.692 37.7631 39.5222 38.4442 40.453C39.1253 41.3838 39.4658 42.541 39.4658 43.9247C39.5606 49.712 36.9437 53.3132 30.2713 60C37.2392 60 42.5961 58.5786 46.342 55.7359C50.1141 52.868 52.0002 48.7548 52.0002 43.3964C52.0002 38.9687 50.7821 35.4971 48.346 32.9814C45.9098 30.4405 41.7972 28.4531 36.008 27.0192C32.0788 26.038 29.3676 24.9689 27.8744 23.8116Z"/><defs><linearGradient id="paint0_linear_415_692" x1="32" x2="28" y1="10" y2="8" gradientUnits="userSpaceOnUse"><stop stop-color="#8026D9"/><stop offset="1" stop-color="#40136D"/></linearGradient><linearGradient id="paint1_linear_415_692" x1="30" x2="34" y1="58" y2="60" gradientUnits="userSpaceOnUse"><stop stop-color="#7322C3"/><stop offset="1" stop-color="#40136D"/></linearGradient><linearGradient id="paint2_linear_415_692" x1="32.609" x2="32.609" y1="4" y2="60" gradientUnits="userSpaceOnUse"><stop stop-color="#9952E0"/><stop offset="1" stop-color="#7322C3"/></linearGradient></defs></svg>