<svg xmlns="http://www.w3.org/2000/svg" width="64" height="64" fill="none" viewBox="0 0 64 64"><path fill="url(#paint0_linear_458_90)" d="M50.0223 6.83103C44.3063 4.91946 39.1502 3.97594 34.5542 4.00047C27.7959 4.00047 22.5437 5.43442 18.7978 8.30232C15.0781 11.1451 13.2183 15.1702 13.2183 20.3777C13.2183 24.3777 14.3538 27.6144 16.625 30.0877C16.7078 30.1778 16.8219 30.2325 16.9438 30.2431L47.0215 32.8659C47.4813 32.9059 47.7286 32.3711 47.376 32.0732C44.8779 29.9623 41.0886 28.2776 36.008 27.0191C32.0788 26.038 29.3676 24.9688 27.8744 23.8116C26.4075 22.6544 25.6741 21.0947 25.6741 19.1324C25.6741 17.3211 26.473 15.8872 28.0709 14.8306C29.6688 13.774 31.8561 13.2457 34.6328 13.2457C37.9585 13.2457 42.2438 14.1199 47.4886 15.8685C47.7619 15.9596 48.0565 15.8034 48.1324 15.5255L50.3439 7.43476C50.4135 7.18004 50.2727 6.91478 50.0223 6.83103Z"/><path fill="url(#paint1_linear_458_90)" d="M30.2711 59.9999C37.239 59.9999 42.5959 58.5786 46.3418 55.7358C50.0946 52.8826 51.9806 48.7968 51.9998 43.4785L34.9862 37.9624C36.6103 38.692 37.7629 39.5221 38.444 40.4529C39.1251 41.3838 39.4656 42.541 39.4656 43.9246C39.4656 46.0881 38.6536 47.7862 37.0295 49.0189C35.4316 50.2264 33.1526 50.8302 30.1925 50.8302C28.1493 50.8302 25.9882 50.5912 23.7092 50.1132C21.5325 49.6327 18.7584 48.8193 15.3868 47.6732C15.1232 47.5836 14.8363 47.7254 14.7489 47.9897L12.1503 55.8473C12.0663 56.1015 12.1977 56.3771 12.4486 56.4704C18.777 58.8234 24.7178 59.9999 30.2711 59.9999Z"/><path fill="url(#paint2_linear_458_90)" d="M27.8744 23.8116C26.4075 22.6544 25.6741 21.0947 25.6741 19.1324C25.4644 12.5182 28.9372 9.49826 34.5542 4.00049C27.7959 4.00049 22.5437 5.43444 18.7978 8.30234C15.0781 11.1451 13.2183 15.1702 13.2183 20.3777C13.2183 24.4531 14.397 27.7361 16.7546 30.2267C19.1122 32.7172 22.845 34.5537 27.953 35.7361C31.0179 36.4656 33.3623 37.2077 34.9864 37.9625C36.6105 38.692 37.7631 39.5222 38.4442 40.453C39.1253 41.3838 39.4658 42.541 39.4658 43.9247C39.5606 49.712 36.9437 53.3132 30.2713 60C37.2392 60 42.5961 58.5786 46.342 55.7359C50.1141 52.868 52.0002 48.7548 52.0002 43.3964C52.0002 38.9687 50.7821 35.4971 48.346 32.9814C45.9098 30.4405 41.7972 28.4531 36.008 27.0192C32.0788 26.038 29.3676 24.9689 27.8744 23.8116Z"/><path fill="url(#paint3_linear_458_90)" d="M27.8744 23.8116C26.4075 22.6544 25.6741 21.0947 25.6741 19.1324C25.4644 12.5182 28.9372 9.49826 34.5542 4.00049C27.7959 4.00049 22.5437 5.43444 18.7978 8.30234C15.0781 11.1451 13.2183 15.1702 13.2183 20.3777C13.2183 24.4531 14.397 27.7361 16.7546 30.2267C19.1122 32.7172 22.845 34.5537 27.953 35.7361C31.0179 36.4656 33.3623 37.2077 34.9864 37.9625C36.6105 38.692 37.7631 39.5222 38.4442 40.453C39.1253 41.3838 39.4658 42.541 39.4658 43.9247C39.5606 49.712 36.9437 53.3132 30.2713 60C37.2392 60 42.5961 58.5786 46.342 55.7359C50.1141 52.868 52.0002 48.7548 52.0002 43.3964C52.0002 38.9687 50.7821 35.4971 48.346 32.9814C45.9098 30.4405 41.7972 28.4531 36.008 27.0192C32.0788 26.038 29.3676 24.9689 27.8744 23.8116Z"/><rect width="32" height="14" x="28" y="37" fill="url(#paint4_linear_458_90)" rx="4"/><g filter="url(#filter0_d_458_90)"><path fill="#fff" d="M39.1406 44.0547C39.4766 44.1615 39.7357 44.3268 39.918 44.5508C40.1003 44.7747 40.1914 45.0469 40.1914 45.3672C40.1914 45.8854 40.0052 46.2878 39.6328 46.5742C39.263 46.8581 38.7422 47 38.0703 47H35.9023V41.3281H37.9102C38.5768 41.3281 39.0911 41.4596 39.4531 41.7227C39.8151 41.9831 39.9961 42.3503 39.9961 42.8242C39.9961 43.4049 39.7109 43.7995 39.1406 44.0078V44.0547ZM37.8477 43.6641C38.4753 43.6641 38.7891 43.4102 38.7891 42.9023C38.7891 42.4336 38.4753 42.1992 37.8477 42.1992H37.0469V43.6641H37.8477ZM38.0078 46.1289C38.3099 46.1289 38.5443 46.056 38.7109 45.9102C38.8802 45.7617 38.9648 45.5547 38.9648 45.2891C38.9648 45.0339 38.8763 44.8411 38.6992 44.7109C38.5247 44.5781 38.2669 44.5117 37.9258 44.5117H37.0469V46.1289H38.0078ZM41.8984 45.1289C41.9609 45.8424 42.3281 46.1992 43 46.1992C43.2083 46.1992 43.418 46.1758 43.6289 46.1289C43.8398 46.0794 44.0729 46.0013 44.3281 45.8945L44.6172 46.6406C43.9818 46.9349 43.3945 47.0807 42.8555 47.0781C42.194 47.0781 41.6745 46.8854 41.2969 46.5C40.9193 46.1146 40.7305 45.5794 40.7305 44.8945C40.7305 44.2122 40.9154 43.681 41.2852 43.3008C41.6549 42.918 42.1732 42.7266 42.8398 42.7266C44.0924 42.7266 44.7188 43.4362 44.7188 44.8555V45.1289H41.8984ZM43.6172 44.4336C43.5833 43.8503 43.3268 43.5586 42.8477 43.5586C42.582 43.5586 42.3724 43.6315 42.2188 43.7773C42.0677 43.9206 41.9688 44.1393 41.9219 44.4336H43.6172ZM48.1484 46.8398C47.7865 46.9883 47.4401 47.0625 47.1094 47.0625C46.1875 47.0625 45.7266 46.6224 45.7266 45.7422V43.6484H45.0352V42.8086H45.8047L46.0352 41.6094H46.918V42.8086H48.0625V43.6484H46.918V45.5742C46.918 45.7878 46.957 45.9401 47.0352 46.0312C47.1159 46.1224 47.2526 46.168 47.4453 46.168C47.6094 46.168 47.7852 46.1354 47.9727 46.0703L48.1484 46.8398ZM50.4609 42.7266C51.0521 42.7266 51.5052 42.8724 51.8203 43.1641C52.1354 43.4557 52.293 43.8789 52.293 44.4336V47H51.3008L51.1641 46.5039C50.9922 46.6862 50.7982 46.8255 50.582 46.9219C50.3685 47.0156 50.1393 47.0625 49.8945 47.0625C49.4622 47.0625 49.1185 46.9505 48.8633 46.7266C48.6107 46.5026 48.4844 46.2018 48.4844 45.8242C48.4844 45.3867 48.668 45.0456 49.0352 44.8008C49.4049 44.556 49.9206 44.4336 50.582 44.4336H51.0938V44.3281C51.0781 43.8438 50.8034 43.6016 50.2695 43.6016C50.0872 43.6016 49.8763 43.6289 49.6367 43.6836C49.3971 43.7357 49.181 43.8034 48.9883 43.8867L48.7344 43.0781C49.0104 42.9661 49.3008 42.8802 49.6055 42.8203C49.9102 42.7578 50.1953 42.7266 50.4609 42.7266ZM50.6836 45.0898C50.3424 45.0898 50.0768 45.1484 49.8867 45.2656C49.6992 45.3828 49.6055 45.5456 49.6055 45.7539C49.6055 45.9258 49.6576 46.0573 49.7617 46.1484C49.8659 46.237 50.013 46.2812 50.2031 46.2812C50.375 46.2812 50.5391 46.2435 50.6953 46.168C50.8542 46.0924 50.987 45.9909 51.0938 45.8633V45.0898H50.6836Z"/></g><defs><filter id="filter0_d_458_90" width="18.391" height="7.754" x="35.402" y="40.828" color-interpolation-filters="sRGB" filterUnits="userSpaceOnUse"><feFlood flood-opacity="0" result="BackgroundImageFix"/><feColorMatrix in="SourceAlpha" result="hardAlpha" type="matrix" values="0 0 0 0 0 0 0 0 0 0 0 0 0 0 0 0 0 0 127 0"/><feOffset dx=".5" dy=".5"/><feGaussianBlur stdDeviation=".5"/><feComposite in2="hardAlpha" operator="out"/><feColorMatrix type="matrix" values="0 0 0 0 0 0 0 0 0 0 0 0 0 0 0 0 0 0 0.25 0"/><feBlend in2="BackgroundImageFix" mode="normal" result="effect1_dropShadow_458_90"/><feBlend in="SourceGraphic" in2="effect1_dropShadow_458_90" mode="normal" result="shape"/></filter><linearGradient id="paint0_linear_458_90" x1="32" x2="28" y1="10" y2="8" gradientUnits="userSpaceOnUse"><stop stop-color="#8026D9"/><stop offset="1" stop-color="#40136D"/></linearGradient><linearGradient id="paint1_linear_458_90" x1="30" x2="34" y1="58" y2="60" gradientUnits="userSpaceOnUse"><stop stop-color="#7322C3"/><stop offset="1" stop-color="#40136D"/></linearGradient><linearGradient id="paint2_linear_458_90" x1="32.609" x2="32.609" y1="4" y2="60" gradientUnits="userSpaceOnUse"><stop stop-color="#9952E0"/><stop offset="1" stop-color="#7322C3"/></linearGradient><linearGradient id="paint3_linear_458_90" x1="32.609" x2="32.609" y1="4" y2="60" gradientUnits="userSpaceOnUse"><stop offset=".542" stop-color="#8026D9" stop-opacity="0"/><stop offset=".73"/><stop offset="1" stop-color="#7322C3" stop-opacity=".17"/></linearGradient><linearGradient id="paint4_linear_458_90" x1="44" x2="44" y1="37" y2="51" gradientUnits="userSpaceOnUse"><stop stop-color="#FFE566"/><stop offset="1" stop-color="#FFD400"/></linearGradient></defs></svg>