<?xml version="1.0" encoding="UTF-8" standalone="no"?><!-- Generator: Gravit.io --><svg xmlns="http://www.w3.org/2000/svg" xmlns:xlink="http://www.w3.org/1999/xlink" style="isolation:isolate" viewBox="21.009 5 57.982 90" width="57.982pt" height="90pt"><g><linearGradient id="_lgradient_0" x1="0.056495689585885564" y1="0.5602227831692493" x2="1.0098686072727854" y2="0.880610860770803" gradientTransform="matrix(57.982,0,0,42.025,21.009,52.975)" gradientUnits="userSpaceOnUse"><stop offset="0%" stop-opacity="1" style="stop-color:rgb(113,35,184)"/><stop offset="47.72865763764673%" stop-opacity="1" style="stop-color:rgb(113,35,184)"/><stop offset="100%" stop-opacity="1" style="stop-color:rgb(0,0,0)"/></linearGradient><path d=" M 74.94 52.975 Q 78.991 58.038 78.991 65.253 L 78.991 65.253 L 78.991 65.253 Q 78.991 77.152 69.497 86.076 L 69.497 86.076 L 69.497 86.076 Q 60.004 95 47.345 95 L 47.345 95 L 47.345 95 Q 37.852 95 30.51 90.443 L 30.51 90.443 L 30.51 90.443 Q 24.054 86.519 21.396 83.481 L 21.396 83.481 L 21.396 83.481 C 20.767 82.713 20.921 81.169 21.739 80.036 L 28.648 70.47 C 29.466 69.337 30.932 69.22 31.92 70.208 Q 40.89 79.177 51.649 79.177 L 51.649 79.177 L 51.649 79.177 Q 57.219 79.177 60.573 76.582 L 60.573 76.582 L 60.573 76.582 Q 63.928 73.987 63.928 69.873 L 63.928 69.873 L 63.928 69.873 Q 63.928 65.759 59.877 62.911 L 59.877 62.911 L 59.877 62.911 Q 55.826 60.063 50.067 57.911 L 50.067 57.911 L 50.067 57.911 Q 44.307 55.759 38.611 53.038 L 38.611 53.038 L 38.611 53.038 Q 38.548 53.008 38.488 52.975 L 74.94 52.975 L 74.94 52.975 Z " fill="url(#_lgradient_0)"/><linearGradient id="_lgradient_1" x1="0.935924523001092" y1="0.3089074986663202" x2="0.13448483483529727" y2="-0.050643568128580285" gradientTransform="matrix(53.517,0,0,47.975,24.814,5)" gradientUnits="userSpaceOnUse"><stop offset="0%" stop-opacity="1" style="stop-color:rgb(113,35,184)"/><stop offset="47.72865763764673%" stop-opacity="1" style="stop-color:rgb(113,35,184)"/><stop offset="100%" stop-opacity="1" style="stop-color:rgb(0,0,0)"/></linearGradient><path d=" M 74.94 52.975 Q 70.89 47.911 65.13 45.316 L 65.13 45.316 L 65.13 45.316 Q 59.371 42.722 53.611 40.57 L 53.611 40.57 L 53.611 40.57 Q 47.852 38.418 43.801 35.57 L 43.801 35.57 L 43.801 35.57 Q 39.75 32.722 39.75 29.051 L 39.75 29.051 L 39.75 29.051 Q 39.75 25.38 42.599 23.165 L 42.599 23.165 L 42.599 23.165 Q 45.447 20.949 50.067 20.949 L 50.067 20.949 L 50.067 20.949 Q 54.687 20.949 60.826 23.291 L 60.826 23.291 L 60.826 23.291 Q 66.966 25.633 69.362 26.39 C 70.694 26.81 72.221 26.108 72.769 24.823 L 78.124 12.265 C 78.673 10.98 78.088 9.46 76.821 8.872 Q 73.928 7.532 68.358 6.266 L 68.358 6.266 L 68.358 6.266 Q 62.788 5 56.839 5 L 56.839 5 L 56.839 5 Q 43.801 5 34.307 13.291 L 34.307 13.291 L 34.307 13.291 Q 24.814 21.582 24.814 32.975 L 24.814 32.975 L 24.814 32.975 Q 24.814 40.19 28.864 45.253 L 28.864 45.253 L 28.864 45.253 C 31.535 48.591 34.742 51.166 38.488 52.975 L 74.94 52.975 L 74.94 52.975 Z " fill="url(#_lgradient_1)"/><radialGradient id="_rgradient_0" fx="0.5" fy="0.5" cx="0.5" cy="0.5" r="0.5" gradientTransform="matrix(69.562,43.126,-7.71,20.707,20.977,18.083)" gradientUnits="userSpaceOnUse"><stop offset="0%" stop-opacity="1" style="stop-color:rgb(158,69,237)"/><stop offset="98.75%" stop-opacity="1" style="stop-color:rgb(137,44,220)"/></radialGradient><path d=" M 63.928 69.873 L 63.928 69.873 L 63.928 69.873 Q 63.928 65.759 59.877 62.911 L 59.877 62.911 L 59.877 62.911 Q 55.826 60.063 50.067 57.911 L 50.067 57.911 L 50.067 57.911 Q 44.307 55.759 38.611 53.038 L 38.611 53.038 L 38.611 53.038 Q 32.915 50.316 28.864 45.253 L 28.864 45.253 L 28.864 45.253 Q 24.814 40.19 24.814 32.975 L 24.814 32.975 L 24.814 32.975 Q 24.814 21.582 34.307 13.291 L 34.307 13.291 L 34.307 13.291 Q 39.681 8.598 46.189 6.562 C 49.517 5.521 53.067 5 56.839 5 L 56.839 5 L 56.839 5 C 46.418 11.766 40.735 19.796 39.75 29.051 L 39.75 29.051 L 39.75 29.051 Q 39.75 32.722 43.801 35.57 L 43.801 35.57 L 43.801 35.57 Q 47.852 38.418 53.611 40.57 L 53.611 40.57 L 53.611 40.57 Q 59.371 42.722 65.13 45.316 L 65.13 45.316 L 65.13 45.316 Q 70.89 47.911 74.94 52.975 L 74.94 52.975 L 74.94 52.975 Q 78.991 58.038 78.991 65.253 L 78.991 65.253 L 78.991 65.253 Q 78.991 77.152 69.497 86.076 L 69.497 86.076 L 69.497 86.076 Q 60.004 95 47.345 95 L 47.345 95 L 47.345 95 C 58.049 87.583 63.602 79.233 63.928 69.873 Z " fill="url(#_rgradient_0)"/></g></svg>