<svg width="64" height="64" viewBox="0 0 64 64" fill="none" xmlns="http://www.w3.org/2000/svg">
<path d="M50.0223 6.83103C44.3063 4.91946 39.1502 3.97594 34.5542 4.00047C27.7959 4.00047 22.5437 5.43442 18.7978 8.30232C15.0781 11.1451 13.2183 15.1702 13.2183 20.3777C13.2183 24.3777 14.3538 27.6144 16.625 30.0877C16.7078 30.1778 16.8219 30.2325 16.9438 30.2431L47.0215 32.8659C47.4813 32.9059 47.7286 32.3711 47.376 32.0732C44.8779 29.9623 41.0886 28.2776 36.008 27.0191C32.0788 26.038 29.3676 24.9688 27.8744 23.8116C26.4075 22.6544 25.6741 21.0947 25.6741 19.1324C25.6741 17.3211 26.473 15.8872 28.0709 14.8306C29.6688 13.774 31.8561 13.2457 34.6328 13.2457C37.9585 13.2457 42.2438 14.1199 47.4886 15.8685C47.7619 15.9596 48.0565 15.8034 48.1324 15.5255L50.3439 7.43476C50.4135 7.18004 50.2727 6.91478 50.0223 6.83103Z" fill="url(#paint0_linear_458_103)"/>
<path d="M30.2711 59.9999C37.239 59.9999 42.5959 58.5786 46.3418 55.7358C50.0946 52.8826 51.9806 48.7968 51.9998 43.4785L34.9862 37.9624C36.6103 38.692 37.7629 39.5221 38.444 40.4529C39.1251 41.3838 39.4656 42.541 39.4656 43.9246C39.4656 46.0881 38.6536 47.7862 37.0295 49.0189C35.4316 50.2264 33.1526 50.8302 30.1925 50.8302C28.1493 50.8302 25.9882 50.5912 23.7092 50.1132C21.5325 49.6327 18.7584 48.8193 15.3868 47.6732C15.1232 47.5836 14.8363 47.7254 14.7489 47.9897L12.1503 55.8473C12.0663 56.1015 12.1977 56.3771 12.4486 56.4704C18.777 58.8234 24.7178 59.9999 30.2711 59.9999Z" fill="url(#paint1_linear_458_103)"/>
<path d="M27.8744 23.8116C26.4075 22.6544 25.6741 21.0947 25.6741 19.1324C25.4644 12.5182 28.9372 9.49826 34.5542 4.00049C27.7959 4.00049 22.5437 5.43444 18.7978 8.30234C15.0781 11.1451 13.2183 15.1702 13.2183 20.3777C13.2183 24.4531 14.397 27.7361 16.7546 30.2267C19.1122 32.7172 22.845 34.5537 27.953 35.7361C31.0179 36.4656 33.3623 37.2077 34.9864 37.9625C36.6105 38.692 37.7631 39.5222 38.4442 40.453C39.1253 41.3838 39.4658 42.541 39.4658 43.9247C39.5606 49.712 36.9437 53.3132 30.2713 60C37.2392 60 42.5961 58.5786 46.342 55.7359C50.1141 52.868 52.0002 48.7548 52.0002 43.3964C52.0002 38.9687 50.7821 35.4971 48.346 32.9814C45.9098 30.4405 41.7972 28.4531 36.008 27.0192C32.0788 26.038 29.3676 24.9689 27.8744 23.8116Z" fill="url(#paint2_linear_458_103)"/>
<path d="M50.0223 6.83103C44.3063 4.91946 39.1502 3.97594 34.5542 4.00047C27.7959 4.00047 22.5437 5.43442 18.7978 8.30232C15.0781 11.1451 13.2183 15.1702 13.2183 20.3777C13.2183 24.3777 14.3538 27.6144 16.625 30.0877C16.7078 30.1778 16.8219 30.2325 16.9438 30.2431L47.0215 32.8659C47.4813 32.9059 47.7286 32.3711 47.376 32.0732C44.8779 29.9623 41.0886 28.2776 36.008 27.0191C32.0788 26.038 29.3676 24.9688 27.8744 23.8116C26.4075 22.6544 25.6741 21.0947 25.6741 19.1324C25.6741 17.3211 26.473 15.8872 28.0709 14.8306C29.6688 13.774 31.8561 13.2457 34.6328 13.2457C37.9585 13.2457 42.2438 14.1199 47.4886 15.8685C47.7619 15.9596 48.0565 15.8034 48.1324 15.5255L50.3439 7.43476C50.4135 7.18004 50.2727 6.91478 50.0223 6.83103Z" fill="url(#paint3_linear_458_103)"/>
<path d="M30.2711 59.9999C37.239 59.9999 42.5959 58.5786 46.3418 55.7358C50.0946 52.8826 51.9806 48.7968 51.9998 43.4785L34.9862 37.9624C36.6103 38.692 37.7629 39.5221 38.444 40.4529C39.1251 41.3838 39.4656 42.541 39.4656 43.9246C39.4656 46.0881 38.6536 47.7862 37.0295 49.0189C35.4316 50.2264 33.1526 50.8302 30.1925 50.8302C28.1493 50.8302 25.9882 50.5912 23.7092 50.1132C21.5325 49.6327 18.7584 48.8193 15.3868 47.6732C15.1232 47.5836 14.8363 47.7254 14.7489 47.9897L12.1503 55.8473C12.0663 56.1015 12.1977 56.3771 12.4486 56.4704C18.777 58.8234 24.7178 59.9999 30.2711 59.9999Z" fill="url(#paint4_linear_458_103)"/>
<path d="M27.8744 23.8116C26.4075 22.6544 25.6741 21.0947 25.6741 19.1324C25.4644 12.5182 28.9372 9.49826 34.5542 4.00049C27.7959 4.00049 22.5437 5.43444 18.7978 8.30234C15.0781 11.1451 13.2183 15.1702 13.2183 20.3777C13.2183 24.4531 14.397 27.7361 16.7546 30.2267C19.1122 32.7172 22.845 34.5537 27.953 35.7361C31.0179 36.4656 33.3623 37.2077 34.9864 37.9625C36.6105 38.692 37.7631 39.5222 38.4442 40.453C39.1253 41.3838 39.4658 42.541 39.4658 43.9247C39.5606 49.712 36.9437 53.3132 30.2713 60C37.2392 60 42.5961 58.5786 46.342 55.7359C50.1141 52.868 52.0002 48.7548 52.0002 43.3964C52.0002 38.9687 50.7821 35.4971 48.346 32.9814C45.9098 30.4405 41.7972 28.4531 36.008 27.0192C32.0788 26.038 29.3676 24.9689 27.8744 23.8116Z" fill="url(#paint5_linear_458_103)"/>
<path d="M27.8744 23.8116C26.4075 22.6544 25.6741 21.0947 25.6741 19.1324C25.4644 12.5182 28.9372 9.49826 34.5542 4.00049C27.7959 4.00049 22.5437 5.43444 18.7978 8.30234C15.0781 11.1451 13.2183 15.1702 13.2183 20.3777C13.2183 24.4531 14.397 27.7361 16.7546 30.2267C19.1122 32.7172 22.845 34.5537 27.953 35.7361C31.0179 36.4656 33.3623 37.2077 34.9864 37.9625C36.6105 38.692 37.7631 39.5222 38.4442 40.453C39.1253 41.3838 39.4658 42.541 39.4658 43.9247C39.5606 49.712 36.9437 53.3132 30.2713 60C37.2392 60 42.5961 58.5786 46.342 55.7359C50.1141 52.868 52.0002 48.7548 52.0002 43.3964C52.0002 38.9687 50.7821 35.4971 48.346 32.9814C45.9098 30.4405 41.7972 28.4531 36.008 27.0192C32.0788 26.038 29.3676 24.9689 27.8744 23.8116Z" fill="url(#paint6_linear_458_103)"/>
<rect x="28" y="37" width="32" height="14" rx="4" fill="url(#paint7_linear_458_103)"/>
<g filter="url(#filter0_d_458_103)">
<path d="M34.5703 45.543L34.1094 47H32.9062L34.7461 41.3281H36.3633L38.25 47H37.0664L36.5859 45.543H34.5703ZM35.5391 42.375L34.8438 44.6406H36.3086L35.5938 42.375H35.5391ZM38.8906 40.9844H40.0898V47H38.8906V40.9844ZM43.6016 42.7539C44.1823 42.7539 44.6341 42.9336 44.957 43.293C45.2799 43.6523 45.4414 44.1628 45.4414 44.8242C45.4414 45.2878 45.349 45.6875 45.1641 46.0234C44.9792 46.3594 44.7174 46.6172 44.3789 46.7969C44.0404 46.974 43.6393 47.0625 43.1758 47.0625C42.957 47.0625 42.7227 47.0339 42.4727 46.9766V48.832H41.2734V42.8086H42.1914L42.375 43.3047C42.5521 43.112 42.737 42.9727 42.9297 42.8867C43.125 42.7982 43.349 42.7539 43.6016 42.7539ZM43.1055 46.2461C43.4674 46.2461 43.7448 46.1289 43.9375 45.8945C44.1328 45.6602 44.2305 45.3164 44.2305 44.8633C44.2305 44.0195 43.9375 43.599 43.3516 43.6016C43.138 43.6016 42.9544 43.6589 42.8008 43.7734C42.6497 43.888 42.5404 44.0495 42.4727 44.2578V46.1602C42.6263 46.1966 42.7422 46.2201 42.8203 46.2305C42.8984 46.2409 42.9935 46.2461 43.1055 46.2461ZM47.4727 43.3203C47.6471 43.1328 47.8516 42.9896 48.0859 42.8906C48.3203 42.7917 48.5768 42.7422 48.8555 42.7422C49.293 42.7422 49.6302 42.8698 49.8672 43.125C50.1042 43.3776 50.2227 43.7409 50.2227 44.2148V47H49.0234V44.2812C49.0234 44.0365 48.9753 43.8594 48.8789 43.75C48.7826 43.6406 48.6276 43.5859 48.4141 43.5859C48.2214 43.5859 48.0417 43.6302 47.875 43.7188C47.7083 43.8047 47.5742 43.9219 47.4727 44.0703V47H46.2695V40.9688H47.4727V43.3203ZM52.8633 42.7266C53.4544 42.7266 53.9076 42.8724 54.2227 43.1641C54.5378 43.4557 54.6953 43.8789 54.6953 44.4336V47H53.7031L53.5664 46.5039C53.3945 46.6862 53.2005 46.8255 52.9844 46.9219C52.7708 47.0156 52.5417 47.0625 52.2969 47.0625C51.8646 47.0625 51.5208 46.9505 51.2656 46.7266C51.013 46.5026 50.8867 46.2018 50.8867 45.8242C50.8867 45.3867 51.0703 45.0456 51.4375 44.8008C51.8073 44.556 52.3229 44.4336 52.9844 44.4336H53.4961V44.3281C53.4805 43.8438 53.2057 43.6016 52.6719 43.6016C52.4896 43.6016 52.2786 43.6289 52.0391 43.6836C51.7995 43.7357 51.5833 43.8034 51.3906 43.8867L51.1367 43.0781C51.4128 42.9661 51.7031 42.8802 52.0078 42.8203C52.3125 42.7578 52.5977 42.7266 52.8633 42.7266ZM53.0859 45.0898C52.7448 45.0898 52.4792 45.1484 52.2891 45.2656C52.1016 45.3828 52.0078 45.5456 52.0078 45.7539C52.0078 45.9258 52.0599 46.0573 52.1641 46.1484C52.2682 46.237 52.4154 46.2812 52.6055 46.2812C52.7773 46.2812 52.9414 46.2435 53.0977 46.168C53.2565 46.0924 53.3893 45.9909 53.4961 45.8633V45.0898H53.0859Z" fill="white"/>
</g>
<defs>
<filter id="filter0_d_458_103" x="32.4062" y="40.4688" width="23.7891" height="9.86328" filterUnits="userSpaceOnUse" color-interpolation-filters="sRGB">
<feFlood flood-opacity="0" result="BackgroundImageFix"/>
<feColorMatrix in="SourceAlpha" type="matrix" values="0 0 0 0 0 0 0 0 0 0 0 0 0 0 0 0 0 0 127 0" result="hardAlpha"/>
<feOffset dx="0.5" dy="0.5"/>
<feGaussianBlur stdDeviation="0.5"/>
<feComposite in2="hardAlpha" operator="out"/>
<feColorMatrix type="matrix" values="0 0 0 0 0 0 0 0 0 0 0 0 0 0 0 0 0 0 0.25 0"/>
<feBlend mode="normal" in2="BackgroundImageFix" result="effect1_dropShadow_458_103"/>
<feBlend mode="normal" in="SourceGraphic" in2="effect1_dropShadow_458_103" result="shape"/>
</filter>
<linearGradient id="paint0_linear_458_103" x1="32" y1="10" x2="28" y2="8" gradientUnits="userSpaceOnUse">
<stop stop-color="#8026D9"/>
<stop offset="1" stop-color="#40136D"/>
</linearGradient>
<linearGradient id="paint1_linear_458_103" x1="30" y1="58" x2="34" y2="60" gradientUnits="userSpaceOnUse">
<stop stop-color="#7322C3"/>
<stop offset="1" stop-color="#40136D"/>
</linearGradient>
<linearGradient id="paint2_linear_458_103" x1="32.6092" y1="4.00049" x2="32.6092" y2="60" gradientUnits="userSpaceOnUse">
<stop stop-color="#9952E0"/>
<stop offset="1" stop-color="#7322C3"/>
</linearGradient>
<linearGradient id="paint3_linear_458_103" x1="32" y1="10" x2="28" y2="8" gradientUnits="userSpaceOnUse">
<stop stop-color="#8026D9"/>
<stop offset="1" stop-color="#40136D"/>
</linearGradient>
<linearGradient id="paint4_linear_458_103" x1="30" y1="58" x2="34" y2="60" gradientUnits="userSpaceOnUse">
<stop stop-color="#7322C3"/>
<stop offset="1" stop-color="#40136D"/>
</linearGradient>
<linearGradient id="paint5_linear_458_103" x1="32.6092" y1="4.00049" x2="32.6092" y2="60" gradientUnits="userSpaceOnUse">
<stop stop-color="#9952E0"/>
<stop offset="1" stop-color="#7322C3"/>
</linearGradient>
<linearGradient id="paint6_linear_458_103" x1="32.6092" y1="4.00049" x2="32.6092" y2="60" gradientUnits="userSpaceOnUse">
<stop offset="0.542191" stop-color="#8026D9" stop-opacity="0"/>
<stop offset="0.73005"/>
<stop offset="1" stop-color="#7322C3" stop-opacity="0.17"/>
</linearGradient>
<linearGradient id="paint7_linear_458_103" x1="44" y1="37" x2="44" y2="51" gradientUnits="userSpaceOnUse">
<stop stop-color="#FF6666"/>
<stop offset="1" stop-color="#FF3333"/>
</linearGradient>
</defs>
</svg>
