<svg width="64" height="64" viewBox="0 0 64 64" fill="currentColor" xmlns="http://www.w3.org/2000/svg">
<path fill-rule="evenodd" clip-rule="evenodd" d="M46.8855 8.67503C42.1807 7.15294 37.9833 6.42859 34.2748 6.44919L34.2637 6.44925C28.1514 6.44925 23.6928 7.80147 20.6295 10.2436L20.6282 10.2446C17.6629 12.6043 16.1133 15.9461 16.1133 20.5547C16.1133 24.1753 17.1086 26.888 18.933 28.8949C20.7865 30.9338 23.8804 32.6009 28.4979 33.7139L28.5105 33.7169C31.4487 34.4452 33.8142 35.2126 35.5311 36.0416C37.2263 36.836 38.6546 37.8388 39.5739 39.147C40.5009 40.4662 40.9023 42.0291 40.9023 43.7109C40.9023 46.3884 39.902 48.6615 37.8417 50.2898L37.8383 50.2924C35.8476 51.8589 33.1909 52.502 30.1445 52.502C28.0528 52.502 25.8679 52.2473 23.5947 51.7508L23.5734 51.746C21.7578 51.3287 19.5602 50.6775 16.9922 49.8032L15.4426 54.6823C20.7298 56.5894 25.6509 57.5195 30.2187 57.5195C36.5484 57.5195 41.1005 56.1712 44.1551 53.7581M46.8855 8.67503L45.5653 13.7044C41.1941 12.2918 37.4346 11.541 34.3379 11.541C31.4779 11.541 28.9646 12.104 27.0064 13.4523C24.9738 14.8518 23.8769 16.8685 23.8769 19.3301C23.8769 21.8061 24.7988 23.9273 26.6856 25.4771L26.699 25.488C28.4645 26.9128 31.387 28.0475 35.1334 29.0216L35.1372 29.0226C40.4532 30.3936 43.8989 32.22 45.8178 34.304L45.8245 34.3112C47.6906 36.3177 48.7402 39.1917 48.7402 43.1914C48.7402 47.9589 47.1589 51.3794 44.1565 53.757M34.2581 2.44922C39.0038 2.42369 44.2474 3.46422 49.963 5.49643C50.9418 5.84445 51.4912 6.88388 51.2274 7.88866L48.8895 16.7949C48.7475 17.336 48.3853 17.7929 47.8908 18.0547C47.3964 18.3165 46.8149 18.3591 46.2875 18.1724C41.2043 16.3726 37.2473 15.541 34.3379 15.541C31.9531 15.541 30.3348 16.017 29.2748 16.7469C28.2892 17.4255 27.8769 18.2291 27.8769 19.3301C27.8769 20.7099 28.3381 21.6552 29.2178 22.3806C30.275 23.2304 32.4714 24.1963 36.1379 25.1497C41.7538 26.5984 46.0745 28.6797 48.7572 31.591C51.4902 34.5321 52.7402 38.4849 52.7402 43.1914C52.7402 48.9622 50.7595 53.6313 46.6379 56.8943L46.6365 56.8954C42.6155 60.0728 37.0496 61.5195 30.2187 61.5195C24.5483 61.5195 18.5454 60.2393 12.2279 57.7429C11.2502 57.3565 10.7385 56.2793 11.0567 55.2774L13.8028 46.6309C13.9671 46.1135 14.3348 45.6851 14.8213 45.4441C15.3078 45.2032 15.8713 45.1703 16.3825 45.3532C19.7319 46.5511 22.4165 47.375 24.4589 47.8453C26.4863 48.2873 28.3799 48.502 30.1445 48.502C32.6878 48.502 34.3354 47.9581 35.3631 47.1503C36.3694 46.3543 36.9023 45.2879 36.9023 43.7109C36.9023 42.6714 36.6605 41.9583 36.3011 41.4468C35.9361 40.9273 35.1918 40.2988 33.8245 39.6593L33.8007 39.648C32.4518 38.9953 30.3951 38.3054 27.5541 37.601C22.5263 36.3883 18.5717 34.4439 15.9732 31.5856C13.3445 28.694 12.1133 24.9497 12.1133 20.5547C12.1133 14.9211 14.0766 10.3462 18.1374 7.11473C22.1484 3.91783 27.608 2.45003 34.2581 2.44922Z" fill="currentColor"/>
</svg>
