<svg width="16" height="16" viewBox="0 0 16 16" fill="current" xmlns="http://www.w3.org/2000/svg">
<path d="M6.16663 6.83333V11.5C6.16663 11.6547 6.22808 11.8031 6.33748 11.9125C6.44688 12.0219 6.59525 12.0833 6.74996 12.0833C6.90467 12.0833 7.05304 12.0219 7.16244 11.9125C7.27183 11.8031 7.33329 11.6547 7.33329 11.5V6.83333C7.33329 6.67862 7.27183 6.53025 7.16244 6.42085C7.05304 6.31146 6.90467 6.25 6.74996 6.25C6.59525 6.25 6.44688 6.31146 6.33748 6.42085C6.22808 6.53025 6.16663 6.67862 6.16663 6.83333Z" fill="current"/>
<path d="M9.08339 6.25C9.2381 6.25 9.38648 6.31146 9.49587 6.42085C9.60527 6.53025 9.66673 6.67862 9.66673 6.83333V11.5C9.66673 11.6547 9.60527 11.8031 9.49587 11.9125C9.38648 12.0219 9.2381 12.0833 9.08339 12.0833C8.92868 12.0833 8.78031 12.0219 8.67091 11.9125C8.56152 11.8031 8.50006 11.6547 8.50006 11.5V6.83333C8.50006 6.67862 8.56152 6.53025 8.67091 6.42085C8.78031 6.31146 8.92868 6.25 9.08339 6.25Z" fill="current"/>
<path d="M10.25 3.33333H13.75C13.9047 3.33333 14.0531 3.39479 14.1625 3.50419C14.2719 3.61358 14.3333 3.76196 14.3333 3.91667C14.3333 4.07138 14.2719 4.21975 14.1625 4.32915C14.0531 4.43854 13.9047 4.5 13.75 4.5H13.1048L12.2275 12.4053C12.1482 13.1188 11.8087 13.778 11.2738 14.2567C10.7389 14.7354 10.0462 15.0001 9.32833 15H6.505C5.78715 15.0001 5.09448 14.7354 4.55957 14.2567C4.02466 13.778 3.68508 13.1188 3.60583 12.4053L2.72733 4.5H2.08333C1.92862 4.5 1.78025 4.43854 1.67085 4.32915C1.56146 4.21975 1.5 4.07138 1.5 3.91667C1.5 3.76196 1.56146 3.61358 1.67085 3.50419C1.78025 3.39479 1.92862 3.33333 2.08333 3.33333H5.58333C5.58333 2.71449 5.82917 2.121 6.26675 1.68342C6.70434 1.24583 7.29783 1 7.91667 1C8.5355 1 9.129 1.24583 9.56658 1.68342C10.0042 2.121 10.25 2.71449 10.25 3.33333ZM7.91667 2.16667C7.60725 2.16667 7.3105 2.28958 7.09171 2.50838C6.87292 2.72717 6.75 3.02391 6.75 3.33333H9.08333C9.08333 3.02391 8.96042 2.72717 8.74162 2.50838C8.52283 2.28958 8.22609 2.16667 7.91667 2.16667ZM3.90217 4.5L4.7655 12.277C4.81316 12.705 5.01695 13.1004 5.33789 13.3875C5.65882 13.6747 6.07436 13.8334 6.505 13.8333H9.32833C9.75877 13.8331 10.174 13.6743 10.4947 13.3871C10.8154 13.1 11.019 12.7048 11.0667 12.277L11.9323 4.5H3.90333H3.90217Z" fill="current"/>
</svg>
