<svg xmlns="http://www.w3.org/2000/svg" width="16" height="16" fill="current" viewBox="0 0 16 16"><path fill="current" fill-rule="evenodd" d="M4.23077 1.53846C4.23077 1.24108 4.47185 1 4.76924 1H11.2308C11.5282 1 11.7692 1.24108 11.7692 1.53846V14.4615C11.7692 14.7589 11.5282 15 11.2308 15H4.76924C4.47185 15 4.23077 14.7589 4.23077 14.4615V1.53846ZM5.3077 2.83842L7.23851 4.76923L5.3077 6.70004V2.83842ZM5.3077 9.29996V13.1616L7.23851 11.2308L5.3077 9.29996ZM8 11.9923L6.0692 13.9231H9.93081L8 11.9923ZM10.6923 13.1616L8.7615 11.2308L10.6923 9.29996V13.1616ZM10.6923 6.70004V2.83842L8.7615 4.76923L10.6923 6.70004ZM8 5.53073L5.53074 8L8 10.4693L10.4693 8L8 5.53073ZM8 4.00773L6.0692 2.07692H9.93081L8 4.00773Z" clip-rule="evenodd"/></svg>