<svg xmlns="http://www.w3.org/2000/svg" width="14" height="13" fill="currentColor" viewBox="0 0 14 13"><path fill="currentColor" d="M9.33333 2.91667H2.22542L4.31783 0.824833L3.5 0L0 3.5L3.5 7L4.31783 6.17458L2.22717 4.08333H9.33333C10.2616 4.08333 11.1518 4.45208 11.8082 5.10846C12.4646 5.76484 12.8333 6.65508 12.8333 7.58333C12.8333 8.51159 12.4646 9.40183 11.8082 10.0582C11.1518 10.7146 10.2616 11.0833 9.33333 11.0833H4.66667V12.25H9.33333C10.571 12.25 11.758 11.7583 12.6332 10.8832C13.5083 10.008 14 8.82101 14 7.58333C14 6.34566 13.5083 5.15867 12.6332 4.2835C11.758 3.40833 10.571 2.91667 9.33333 2.91667Z"/></svg>