<svg width="16" height="16" viewBox="0 0 16 16" fill="current" xmlns="http://www.w3.org/2000/svg">
<path d="M10.3333 4.91667H3.22542L5.31783 2.82483L4.5 2L1 5.5L4.5 9L5.31783 8.17458L3.22717 6.08333H10.3333C11.2616 6.08333 12.1518 6.45208 12.8082 7.10846C13.4646 7.76484 13.8333 8.65508 13.8333 9.58333C13.8333 10.5116 13.4646 11.4018 12.8082 12.0582C12.1518 12.7146 11.2616 13.0833 10.3333 13.0833H5.66667V14.25H10.3333C11.571 14.25 12.758 13.7583 13.6332 12.8832C14.5083 12.008 15 10.821 15 9.58333C15 8.34566 14.5083 7.15867 13.6332 6.2835C12.758 5.40833 11.571 4.91667 10.3333 4.91667Z" fill="current"/>
</svg>
