<svg width="16" height="16" viewBox="0 0 16 16" fill="current" xmlns="http://www.w3.org/2000/svg">
<path fill-rule="evenodd" clip-rule="evenodd" d="M10.7641 5.71314C12.1359 8.23648 13.5077 10.7598 14.8792 13.2832L14.88 13.2827C15.0618 13.6158 15.0209 13.9385 14.868 14.1816C14.7464 14.4368 14.5134 14.625 14.1665 14.625H1.82487C1.1987 14.625 0.793076 13.8675 1.11131 13.2832C2.38373 10.941 3.65725 8.59884 4.93077 6.25669C5.71427 4.81573 6.49778 3.37477 7.28103 1.93381C7.34961 1.80288 7.45236 1.69329 7.57822 1.61685C7.70408 1.5404 7.84827 1.5 7.99524 1.5C8.14221 1.5 8.2864 1.5404 8.41226 1.61685C8.53812 1.69329 8.64088 1.80288 8.70946 1.93381C9.3943 3.19359 10.0792 4.45336 10.7641 5.71314ZM7.13865 6.15697L7.33335 9.08243C7.36949 9.46096 7.42972 9.7431 7.5158 9.92861C7.59946 10.1135 7.75234 10.2059 7.9696 10.2059C8.18446 10.2059 8.33821 10.111 8.43151 9.91891C8.52415 9.72765 8.58438 9.4528 8.61263 9.09412L8.87327 6.08329C8.90218 5.80645 8.91663 5.53336 8.91663 5.26535C8.91663 4.80939 8.85706 4.46041 8.73945 4.21732C8.62293 3.97578 8.39011 3.85423 8.04341 3.85423C7.75606 3.85423 7.52434 3.94909 7.34803 4.13791C7.17238 4.32784 7.08477 4.591 7.08477 4.92939C7.08477 5.17777 7.10229 5.58719 7.13865 6.15697ZM7.36073 12.8598C7.54493 13.0211 7.75978 13.1009 8.00618 13.1009C8.24174 13.1038 8.46961 13.0165 8.64374 12.8567C8.82486 12.6944 8.91663 12.4698 8.91663 12.1852C8.91663 11.9331 8.82486 11.7176 8.64636 11.5409C8.46589 11.3631 8.2495 11.2749 7.99435 11.2749C7.73919 11.2749 7.52434 11.3631 7.34803 11.5409C7.17238 11.7176 7.08477 11.9331 7.08477 12.1852C7.08477 12.4742 7.17654 12.6992 7.36073 12.8598Z" fill="current"/>
</svg>
