<svg xmlns="http://www.w3.org/2000/svg" width="16" height="16" fill="current" viewBox="0 0 16 16"><path fill="current" fill-rule="evenodd" d="M8 9.40909C8.77822 9.40909 9.40909 8.77822 9.40909 8C9.40909 7.22178 8.77822 6.59091 8 6.59091C7.22178 6.59091 6.59091 7.22178 6.59091 8C6.59091 8.77822 7.22178 9.40909 8 9.40909ZM8.5 10.3571V13.9795C9.78134 13.8739 10.9478 13.3662 11.8744 12.5816L9.31304 10.0201C9.06902 10.1791 8.79443 10.295 8.5 10.3571ZM10.0201 9.31304L12.5816 11.8744C13.3662 10.9478 13.8739 9.78134 13.9795 8.5H10.3571C10.295 8.79443 10.1791 9.06902 10.0201 9.31304ZM10.3571 7.5H13.9795C13.8739 6.21866 13.3662 5.05225 12.5816 4.12555L10.0201 6.68696C10.1791 6.93098 10.295 7.20557 10.3571 7.5ZM9.31304 5.97985C9.06902 5.82092 8.79443 5.70501 8.5 5.64286V2.0205C9.78134 2.12606 10.9478 2.63377 11.8744 3.41844L9.31304 5.97985ZM12.5836 2.70926C11.4733 1.74653 10.057 1.12746 8.5 1.01758C8.33485 1.00593 8.16812 1 8 1C7.83188 1 7.66515 1.00593 7.5 1.01758C5.94304 1.12746 4.52666 1.74653 3.41637 2.70926C3.2903 2.81858 3.16818 2.93232 3.05025 3.05025C2.93232 3.16818 2.81858 3.2903 2.70926 3.41637C1.74653 4.52666 1.12746 5.94304 1.01758 7.5C1.00593 7.66515 1 7.83188 1 8C1 8.16812 1.00593 8.33485 1.01758 8.5C1.12746 10.057 1.74653 11.4733 2.70926 12.5836C2.81858 12.7097 2.93232 12.8318 3.05025 12.9497C3.16818 13.0677 3.2903 13.1814 3.41637 13.2907C4.52666 14.2535 5.94304 14.8725 7.5 14.9824C7.66515 14.9941 7.83188 15 8 15C8.16812 15 8.33485 14.9941 8.5 14.9824C10.057 14.8725 11.4733 14.2535 12.5836 13.2907C12.7097 13.1814 12.8318 13.0677 12.9497 12.9497C13.0677 12.8318 13.1814 12.7097 13.2907 12.5836C14.2535 11.4733 14.8725 10.057 14.9824 8.5C14.9941 8.33485 15 8.16812 15 8C15 7.83188 14.9941 7.66515 14.9824 7.5C14.8725 5.94304 14.2535 4.52666 13.2907 3.41637C13.1814 3.2903 13.0677 3.16818 12.9497 3.05025C12.8318 2.93232 12.7097 2.81858 12.5836 2.70926ZM7.5 13.9795V10.3571C7.20557 10.295 6.93098 10.1791 6.68696 10.0201L4.12555 12.5816C5.05225 13.3662 6.21866 13.8739 7.5 13.9795ZM3.41844 11.8744L5.97985 9.31304C5.82092 9.06902 5.70501 8.79443 5.64286 8.5H2.0205C2.12606 9.78134 2.63377 10.9478 3.41844 11.8744ZM2.0205 7.5H5.64286C5.70501 7.20557 5.82092 6.93098 5.97985 6.68696L3.41845 4.12555C2.63377 5.05225 2.12606 6.21866 2.0205 7.5ZM4.12555 3.41845L6.68696 5.97985C6.93098 5.82092 7.20557 5.70501 7.5 5.64286V2.0205C6.21866 2.12606 5.05225 2.63377 4.12555 3.41845Z" clip-rule="evenodd"/></svg>