<?xml version="1.0" encoding="UTF-8" standalone="no"?><!-- Generator: Gravit.io --><svg xmlns="http://www.w3.org/2000/svg" xmlns:xlink="http://www.w3.org/1999/xlink" style="isolation:isolate" viewBox="491 33 18 18" width="18pt" height="18pt"><path d=" M 500 33 C 495.037 33 491 37.037 491 42 C 491 46.963 495.037 51 500 51 C 504.963 51 509 46.963 509 42 C 509 37.037 504.963 33 500 33 Z  M 500 34.5 C 504.151 34.5 507.5 37.849 507.5 42 C 507.5 46.151 504.151 49.5 500 49.5 C 495.849 49.5 492.5 46.151 492.5 42 C 492.5 37.849 495.849 34.5 500 34.5 Z  M 499.93 35.977 C 499.897 35.983 499.865 35.992 499.836 36 L 499.813 36 C 497.776 36.065 495.998 37.155 494.961 38.766 C 494.826 38.88 494.733 39.038 494.703 39.211 C 493.758 40.977 493.767 43.101 494.727 44.859 L 494.75 44.883 C 494.753 44.889 494.747 44.9 494.75 44.906 C 494.782 44.991 494.829 45.071 494.891 45.141 C 495.953 46.865 497.811 47.94 499.835 48 L 500 48 C 500.055 48 500.109 48.003 500.164 48 L 500.188 48 C 502.253 47.935 504.055 46.813 505.086 45.164 C 505.174 45.073 505.238 44.959 505.273 44.836 C 505.748 43.966 505.997 42.991 506 42 C 506.004 41.082 505.795 40.176 505.39 39.352 C 505.393 39.081 505.25 38.831 505.015 38.696 L 504.993 38.696 C 503.944 37.11 502.204 36.118 500.305 36.023 C 500.29 36.014 500.274 36.007 500.258 36 L 500.164 36 C 500.088 35.979 500.009 35.971 499.93 35.977 Z  M 499.25 37.571 L 499.25 38.25 C 499.247 38.52 499.388 38.771 499.622 38.909 C 499.857 39.044 500.143 39.044 500.378 38.909 C 500.612 38.771 500.753 38.519 500.75 38.25 L 500.75 37.571 C 501.817 37.747 502.783 38.305 503.469 39.141 L 502.883 39.469 C 502.519 39.677 502.393 40.136 502.602 40.5 C 502.81 40.863 503.269 40.989 503.633 40.781 L 504.219 40.453 C 504.402 40.948 504.497 41.472 504.5 42 C 504.5 42.545 504.395 43.063 504.219 43.547 L 503.633 43.219 C 503.478 43.127 503.295 43.094 503.117 43.125 C 502.797 43.175 502.544 43.424 502.49 43.743 C 502.437 44.063 502.595 44.381 502.883 44.531 L 503.469 44.86 C 502.783 45.695 501.817 46.253 500.75 46.429 L 500.75 45.75 C 500.758 45.534 500.672 45.326 500.515 45.178 C 500.358 45.03 500.144 44.956 499.93 44.977 C 499.897 44.983 499.865 44.992 499.836 45 C 499.487 45.079 499.242 45.392 499.25 45.75 L 499.25 46.43 C 498.183 46.253 497.217 45.695 496.531 44.86 L 497.117 44.531 C 497.469 44.383 497.653 43.994 497.545 43.628 C 497.436 43.262 497.071 43.035 496.695 43.102 C 496.671 43.108 496.648 43.116 496.625 43.125 C 496.534 43.14 496.446 43.172 496.367 43.219 L 495.781 43.547 C 495.598 43.052 495.502 42.528 495.5 42 C 495.5 41.455 495.605 40.936 495.781 40.453 L 496.367 40.781 C 496.731 40.989 497.19 40.864 497.398 40.5 C 497.498 40.326 497.525 40.119 497.472 39.926 C 497.419 39.732 497.291 39.568 497.117 39.469 L 496.531 39.14 C 497.217 38.305 498.183 37.747 499.25 37.571 L 499.25 37.571 Z  M 500 39.75 C 498.766 39.75 497.75 40.766 497.75 42 C 497.75 43.234 498.766 44.25 500 44.25 C 501.234 44.25 502.25 43.234 502.25 42 C 502.25 40.766 501.234 39.75 500 39.75 Z  M 500 41.25 C 500.422 41.25 500.75 41.578 500.75 42 C 500.75 42.422 500.422 42.75 500 42.75 C 499.578 42.75 499.25 42.422 499.25 42 C 499.25 41.578 499.578 41.25 500 41.25 Z " fill="rgb(255,255,255)"/></svg>