<svg xmlns="http://www.w3.org/2000/svg" width="16" height="16" fill="current" viewBox="0 0 16 16"><path fill="current" fill-rule="evenodd" d="M1.64645 1.64645C1.84171 1.45118 2.15829 1.45118 2.35355 1.64645L14.3536 13.6464C14.5488 13.8417 14.5488 14.1583 14.3536 14.3536C14.1583 14.5488 13.8417 14.5488 13.6464 14.3536L1.64645 2.35355C1.45118 2.15829 1.45118 1.84171 1.64645 1.64645Z" clip-rule="evenodd"/><path fill="current" fill-rule="evenodd" d="M14.3536 1.64645C14.1583 1.45118 13.8417 1.45118 13.6464 1.64645L1.64645 13.6464C1.45118 13.8417 1.45118 14.1583 1.64645 14.3536C1.84171 14.5488 2.15829 14.5488 2.35355 14.3536L14.3536 2.35355C14.5488 2.15829 14.5488 1.84171 14.3536 1.64645Z" clip-rule="evenodd"/></svg>