<?xml version="1.0" encoding="UTF-8" standalone="no"?><!-- Generator: Gravit.io --><svg xmlns="http://www.w3.org/2000/svg" xmlns:xlink="http://www.w3.org/1999/xlink" style="isolation:isolate" viewBox="121 33 18 18" width="18pt" height="18pt"><path d=" M 133.864 44.321 L 133.051 44.321 L 132.763 44.043 C 133.807 42.833 134.38 41.288 134.379 39.69 C 134.379 35.995 131.384 33 127.69 33 C 123.995 33 121 35.995 121 39.69 C 121 43.384 123.995 46.379 127.69 46.379 C 129.346 46.379 130.87 45.772 132.043 44.763 L 132.321 45.051 L 132.321 45.864 L 137.467 51 L 139 49.467 L 133.864 44.321 Z  M 127.69 44.321 C 125.127 44.321 123.058 42.252 123.058 39.69 C 123.058 37.127 125.127 35.058 127.69 35.058 C 130.252 35.058 132.321 37.127 132.321 39.69 C 132.321 42.252 130.252 44.321 127.69 44.321 Z  M 125.117 39.175 L 130.262 39.175 L 130.262 40.204 L 125.117 40.204 L 125.117 39.175 Z " fill="rgb(255,255,255)"/></svg>