<?xml version="1.0" encoding="UTF-8" standalone="no"?><!-- Generator: Gravit.io --><svg xmlns="http://www.w3.org/2000/svg" xmlns:xlink="http://www.w3.org/1999/xlink" style="isolation:isolate" viewBox="95 33 18 18" width="18pt" height="18pt"><path d=" M 107.864 44.321 L 107.051 44.321 L 106.763 44.043 C 107.807 42.833 108.38 41.288 108.379 39.69 C 108.379 35.995 105.384 33 101.69 33 C 97.995 33 95 35.995 95 39.69 C 95 43.384 97.995 46.379 101.69 46.379 C 103.346 46.379 104.87 45.772 106.043 44.763 L 106.321 45.051 L 106.321 45.864 L 111.467 51 L 113 49.467 L 107.864 44.321 Z  M 101.69 44.321 C 99.127 44.321 97.058 42.252 97.058 39.69 C 97.058 37.127 99.127 35.058 101.69 35.058 C 104.252 35.058 106.321 37.127 106.321 39.69 C 106.321 42.252 104.252 44.321 101.69 44.321 Z  M 104.262 40.204 L 102.204 40.204 L 102.204 42.262 L 101.175 42.262 L 101.175 40.204 L 99.117 40.204 L 99.117 39.175 L 101.175 39.175 L 101.175 37.117 L 102.204 37.117 L 102.204 39.175 L 104.262 39.175 L 104.262 40.204 Z " fill-rule="evenodd" fill="rgb(255,255,255)"/></svg>