<svg xmlns="http://www.w3.org/2000/svg" width="16" height="16" fill="current" viewBox="0 0 16 16"><path fill="current" fill-rule="evenodd" d="M12.0137 6.13939C12.109 7.55418 11.6547 8.95119 10.7453 10.0397L15 14.2914L14.3009 15L10.0462 10.7384C9.09556 11.5314 7.90541 11.9816 6.66752 12.0162C5.42963 12.0509 4.21611 11.6681 3.22252 10.9294C2.22892 10.1908 1.51311 9.13943 1.19044 7.94467C0.867767 6.74992 0.957025 5.48141 1.44383 4.34353C1.93064 3.20566 2.78663 2.2647 3.87389 1.67229C4.96114 1.07989 6.21633 0.870526 7.43718 1.07795C8.65803 1.28538 9.77345 1.89751 10.6037 2.81571C11.4339 3.7339 11.9306 4.90468 12.0137 6.13939ZM6.57057 11.0178C7.76193 11.0157 8.90392 10.542 9.74659 9.7004L9.70664 9.72036C10.1333 9.30432 10.473 8.80779 10.7062 8.25956C10.9393 7.71133 11.0613 7.12231 11.0649 6.52663C11.0649 5.63836 10.8013 4.77003 10.3075 4.03146C9.81365 3.29289 9.11172 2.71724 8.29049 2.37732C7.46925 2.03739 6.56558 1.94845 5.69376 2.12174C4.82194 2.29504 4.02112 2.72278 3.39257 3.35088C2.76402 3.97899 2.33598 4.77924 2.16256 5.65044C1.98914 6.52165 2.07815 7.42468 2.41832 8.24533C2.75848 9.06599 3.33454 9.76742 4.07363 10.2609C4.81273 10.7544 5.68167 11.0178 6.57057 11.0178ZM4.03375 6.04757H9.02749V7.04561H4.03375V6.04757Z" clip-rule="evenodd"/></svg>