<?xml version="1.0" standalone="no"?>
<!DOCTYPE svg PUBLIC "-//W3C//DTD SVG 20010904//EN"
 "http://www.w3.org/TR/2001/REC-SVG-20010904/DTD/svg10.dtd">
<svg version="1.0" xmlns="http://www.w3.org/2000/svg"
 width="260.000000pt" height="260.000000pt" viewBox="0 0 260.000000 260.000000"
 preserveAspectRatio="xMidYMid meet">
<metadata>
Created by potrace 1.14, written by Peter Selinger 2001-2017
</metadata>
<g transform="translate(0.000000,260.000000) scale(0.100000,-0.100000)"
fill="#000000" stroke="none">
<path d="M166 2580 c-58 -23 -109 -69 -139 -125 l-22 -40 0 -1115 c0 -1048 1
-1117 18 -1147 28 -52 77 -102 121 -126 l41 -22 1115 0 c1068 0 1116 1 1150
19 49 26 98 74 123 121 l22 40 0 1115 0 1115 -22 40 c-25 47 -74 95 -123 121
-33 18 -84 19 -1135 21 -1066 2 -1102 2 -1149 -17z"/>
</g>
</svg>
