<?xml version="1.0" standalone="no"?>
<!DOCTYPE svg PUBLIC "-//W3C//DTD SVG 20010904//EN"
 "http://www.w3.org/TR/2001/REC-SVG-20010904/DTD/svg10.dtd">
<svg version="1.0" xmlns="http://www.w3.org/2000/svg"
 width="512.000000pt" height="512.000000pt" viewBox="0 0 512.000000 512.000000"
 preserveAspectRatio="xMidYMid meet">
<metadata>
Created by potrace 1.14, written by Peter Selinger 2001-2017
</metadata>
<g transform="translate(0.000000,512.000000) scale(0.100000,-0.100000)"
fill="#000000" stroke="none">
<path d="M2769 5116 c-2 -2 -33 -7 -67 -10 -223 -23 -513 -112 -672 -206 -28
-17 -53 -30 -56 -30 -6 0 -177 -111 -184 -120 -3 -3 -25 -21 -50 -40 -51 -39
-152 -133 -214 -199 -22 -24 -51 -55 -64 -67 -87 -89 -230 -351 -276 -504 -71
-239 -78 -520 -17 -740 72 -257 266 -509 541 -699 83 -58 478 -249 620 -300
19 -7 44 -17 55 -22 11 -5 45 -18 75 -29 30 -11 64 -25 75 -30 11 -5 61 -26
110 -46 230 -93 475 -235 569 -331 57 -58 101 -132 120 -204 18 -67 14 -196
-8 -264 -45 -145 -189 -273 -368 -328 -123 -38 -201 -48 -344 -43 -288 10
-533 91 -784 259 -41 28 -80 56 -87 61 -6 6 -26 22 -44 36 -34 25 -49 39 -131
116 -94 89 -164 93 -226 13 -86 -110 -398 -551 -410 -579 -20 -47 -23 -110 -6
-141 7 -15 48 -57 91 -95 43 -38 80 -71 83 -74 55 -55 368 -256 500 -321 151
-74 369 -140 510 -155 30 -3 62 -8 70 -11 26 -10 393 -12 443 -2 26 5 69 11
95 15 111 14 326 79 453 138 395 181 776 571 928 951 74 183 105 356 106 575
0 223 -30 363 -112 525 -111 220 -360 457 -612 585 -83 42 -335 148 -616 260
-261 103 -265 105 -398 171 -385 192 -519 363 -477 608 6 39 16 73 21 77 5 3
9 12 9 20 0 25 67 108 117 145 75 57 93 66 178 95 70 24 98 27 230 30 150 3
171 0 340 -38 112 -25 338 -102 630 -215 148 -57 198 -64 260 -39 35 15 78 66
90 106 4 14 11 30 15 35 4 6 43 93 85 195 43 102 88 208 101 237 13 28 24 54
24 57 0 6 46 111 62 140 5 10 12 42 14 70 8 84 -32 130 -156 177 -30 12 -59
22 -65 23 -5 2 -48 14 -95 29 -146 45 -399 99 -525 112 -33 4 -71 9 -85 11
-31 6 -465 15 -471 10z"/>
</g>
</svg>
