<?xml version="1.0" standalone="no"?>
<!DOCTYPE svg PUBLIC "-//W3C//DTD SVG 20010904//EN"
 "http://www.w3.org/TR/2001/REC-SVG-20010904/DTD/svg10.dtd">
<svg version="1.0" xmlns="http://www.w3.org/2000/svg"
 width="260.000000pt" height="260.000000pt" viewBox="0 0 260.000000 260.000000"
 preserveAspectRatio="xMidYMid meet">
<metadata>
Created by potrace 1.14, written by Peter Selinger 2001-2017
</metadata>
<g transform="translate(0.000000,260.000000) scale(0.100000,-0.100000)"
fill="#000000" stroke="none">
<path d="M155 2576 c-64 -29 -102 -68 -132 -132 l-23 -52 2 -1103 c3 -1034 4
-1106 21 -1136 28 -52 77 -102 121 -126 l41 -22 1115 0 c1068 0 1116 1 1150
19 49 26 98 74 123 121 l22 40 2 1105 3 1105 -24 50 c-27 58 -65 99 -121 129
l-40 21 -1105 2 -1105 2 -50 -23z"/>
</g>
</svg>
